<?xml version="1.0" encoding="utf-8"?>
<!-- Generator: Adobe Illustrator 21.0.2, SVG Export Plug-In . SVG Version: 6.00 Build 0)  -->
<svg version="1.1" id="Ebene_1" xmlns="http://www.w3.org/2000/svg" xmlns:xlink="http://www.w3.org/1999/xlink" x="0px" y="0px"
	 viewBox="0 0 1518.8 407.4" width="1518.8" height="407.4" style="enable-background:new 0 0 1518.8 407.4;" xml:space="preserve">
<style type="text/css">
	.st0{fill:none;}
	.st1{fill:#B8D4CB;}
	.st2{fill:#9BC3B7;}
	.st3{fill:#AB377A;}
	.st4{fill:#5EA290;}
	.st5{fill:#E1EDE9;}
	.st6{fill:#D7E7E2;}
	.st7{fill:#CDE1DB;}

  @keyframes move-and-fade-sm-offset-br {
    0% { opacity: 0; transform: translate(10px, 10px); }
    50% { opacity: 1; }
    75% { opacity: 0; }
    99% { opacity: 0; transform: translate(0px, 10px); }
    100% { opacity: 0; transform: translate(0px, 10px); }
  }

  @keyframes move-and-fade-s {
    0% { opacity: 0; transform: translateX(0); }
    50% { opacity: 1; }
    75% { opacity: 0; }
    99% { opacity: 0; transform: translateX(-5px); }
    100% { opacity: 0; transform: translateX(-5px); }
  }

  @keyframes move-and-fade-m {
    0% { opacity: 0; transform: translateX(0); }
    50% { opacity: 1; }
    75% { opacity: 0; }
    99% { opacity: 0; transform: translateX(-15px); }
    100% { opacity: 0; transform: translateX(-15px); }
  }

  @keyframes move-and-fade-l {
    0% { opacity: 0; transform: translateX(0); }
    50% { opacity: 1; }
    75% { opacity: 0; }
    99% { opacity: 0; transform: translateX(-25px); }
    100% { opacity: 0; transform: translateX(-25px); }
  }

  @keyframes move-and-fade-xl {
    0% { opacity: 0; transform: translateX(0); }
    50% { opacity: 1; }
    75% { opacity: 0; }
    99% { opacity: 0; transform: translateX(-40px); }
    100% { opacity: 0; transform: translateX(-40px); }
  }

  @keyframes shake-s {
    0% { transform: translate(0, 0) rotate(0); }
    99% { transform: translate(1px, 0px) rotate(0.075deg); }
    100% { transform: translate(1px, 0px) rotate(0.075deg); }
  }

  @keyframes shake-m {
    0% { transform: translate(0, 0) rotate(0); }
    99% { transform: translate(0px, 1px); }
    100% { transform: translate(0px, 1px); }
  }

  .wolke1_x2C__auto1 {
    animation: move-and-fade-l 3s linear 0s infinite;
  }

  .wolke2_x2C__auto1 {
    animation: move-and-fade-m 3s linear 0.5s infinite;
  }

  .wolke3_x2C__auto1 {
    transform: translate(10px, 10px);
    animation: move-and-fade-sm-offset-br 3s ease-out 0.5s infinite;
  }

  .wolke1_x2C__auto2,
  .wolke1_x2C__auto4 {
    animation: move-and-fade-xl 3s linear 0s infinite;
  }

  .wolke2_x2C__auto2,
  .wolke2_x2C__auto4 {
    animation: move-and-fade-m 3s linear 0.5s infinite;
  }

  .wolke3_x2C__auto2,
  .wolke3_x2C__auto4 {
    animation: move-and-fade-s 3s ease-out 0.5s infinite;
  }

  .wolke4_x2C__auto2,
  .wolke4_x2C__auto4 {
    animation: move-and-fade-s 3s ease-out 0.5s infinite;
  }

  .wolke1_x2C__auto3 {
    animation: move-and-fade-l 3s linear 0s infinite;
  }

  .wolke2_x2C__auto3 {
    animation: move-and-fade-m 3s linear 0.5s infinite;
  }

  .wolke3_x2C__auto3 {
    animation: move-and-fade-s 3s ease-out 0.5s infinite;
  }

  .auto1, .auto2, .auto3 {
    animation: shake-s 100ms ease-in-out infinite;
  }

  .auto4 {
    animation: shake-m 100ms ease-in-out infinite;
  }
</style>
<g>
	<rect x="1462.1" y="238.5" class="st0" width="12.4" height="0.1"/>
	<rect x="1462.1" y="260.6" class="st0" width="12.4" height="0.1"/>
	<path class="st0" d="M122.6,264c0.1,1,0.1,2,0.2,3c0.1,0,0.2,0,0.3,0c-0.1-1-0.1-2-0.2-3H122.6z"/>
	<rect x="1462.1" y="150.1" class="st0" width="12.4" height="0.1"/>
	<rect x="1156" y="153" class="st0" width="0.1" height="8.4"/>
	<rect x="1156" y="65.1" class="st0" width="0.1" height="8.4"/>
	<rect x="1462.1" y="194.3" class="st0" width="12.4" height="0.1"/>
	<rect x="1462.1" y="172.2" class="st0" width="12.4" height="0.1"/>
	<rect x="1166.7" y="138.3" class="st0" width="9.3" height="0.1"/>
	<rect x="1166.7" y="167.6" class="st0" width="9.3" height="0.1"/>
	<rect x="1438.1" y="150.1" class="st0" width="14.9" height="0.1"/>
	<rect x="1438.1" y="216.4" class="st0" width="14.9" height="0.1"/>
	<rect x="1156" y="123.8" class="st0" width="0.1" height="8.3"/>
	<rect x="1438.1" y="238.5" class="st0" width="14.9" height="0.1"/>
	<rect x="1438.1" y="260.6" class="st0" width="14.9" height="0.1"/>
	<polygon class="st0" points="1146.8,138.4 1156,138.4 1156,146.7 1156.1,146.7 1156.1,138.3 1146.8,138.3 	"/>
	<rect x="1438.1" y="194.3" class="st0" width="14.9" height="0.1"/>
	<rect x="1438.1" y="172.2" class="st0" width="14.9" height="0.1"/>
	<rect x="1156" y="109" class="st0" width="0.1" height="8.4"/>
	<rect x="1156" y="94.4" class="st0" width="0.1" height="8.4"/>
	<rect x="1156" y="79.8" class="st0" width="0.1" height="8.4"/>
	<rect x="1462.1" y="216.4" class="st0" width="12.4" height="0.1"/>
	<path class="st0" d="M1155.9,220h-4.8c0,0,0,0.1,0,0.1L1155.9,220L1155.9,220z"/>
	<polygon class="st0" points="1139.9,156.9 1125.6,156.9 1125.6,157 1140,157 1140,153.3 1139.9,153.3 	"/>
	<rect x="1139.9" y="159" class="st0" width="0.1" height="3.7"/>
	<path class="st0" d="M1146.8,217.7v-6h-0.2v6.1h-3.7v0h-0.5v-3.5c0-1.5-0.3-3-0.8-4.3v-64.5h-0.2v64.3c-0.4-1-0.9-2-1.5-2.9v0
		c-0.6-0.7-1.1-1.4-1.9-2.1h1.9v-0.1h-2c-1-0.8-2-1.5-3.2-2h0.1c-1.5-0.7-3.3-1.1-5.1-1.1h-4.1V199h-0.1v2.6h-1.5h-0.1h-6.2
		c-1.8,0-3.5,0.4-5.1,1.1h-2.8V199h-0.1v3.8h2.8c-1.6,0.7-3,1.7-4.2,3.1l0,0.1c-0.4,0.4-0.7,0.8-1,1.2V188h-0.1v19.2
		c-1.3,2-2.1,4.4-2.1,7v3.5h-9.6c0,0.1,0.1,0.2,0.1,0.3h9.6v-3.5c0-2.6,0.7-5,2.1-7c0.3-0.4,0.7-0.8,1-1.2c1.2-1.4,2.6-2.5,4.3-3.2
		c1.5-0.7,3.3-1.1,5.1-1.1h6.3h1.6h4.1c1.8,0,3.5,0.4,5.1,1.1c1.2,0.5,2.3,1.2,3.2,2c0.7,0.6,1.4,1.4,2,2.2c0.6,0.9,1.1,1.9,1.5,2.9
		c0.5,1.3,0.8,2.8,0.8,4.3v3.5h0.5h4h5c0-0.1,0.1-0.2,0.1-0.3H1146.8z"/>
	<rect x="1139.9" y="147.5" class="st0" width="0.1" height="3.7"/>
	<rect x="1139.9" y="164.7" class="st0" width="0.1" height="3.7"/>
	<rect x="1139.9" y="170.4" class="st0" width="0.1" height="3.7"/>
	<rect x="1139.9" y="187.6" class="st0" width="0.1" height="3.7"/>
	<rect x="1139.9" y="181.9" class="st0" width="0.1" height="3.7"/>
	<rect x="1139.9" y="176.1" class="st0" width="0.1" height="3.7"/>
	<path class="st0" d="M1142.8,254.3h-0.2h-0.3v-5c0,0-0.1,0.1-0.1,0.1v5.1h0.5h8.9c0-0.1,0-0.1,0.1-0.2H1142.8z"/>
	<polygon class="st0" points="1190.4,267.3 1190.4,267.3 1190.4,128.8 1190.4,128.8 	"/>
	<polygon class="st0" points="1388.4,267.3 1388.4,267.3 1388.4,128.8 1388.4,128.8 	"/>
	<rect x="1264.2" y="216.4" class="st0" width="12.3" height="0.1"/>
	<rect x="1409.5" y="79.2" class="st0" width="0.1" height="32"/>
	<polygon class="st0" points="1204.2,92 1260.4,92 1260.3,91.9 1204.3,91.9 	"/>
	<path class="st0" d="M1142.6,236.1L1142.6,236.1l-0.3-0.1v0.3h0.5h8.8c0-0.1,0.1-0.1,0.1-0.2H1142.6z"/>
	<path class="st0" d="M1155.9,234.8L1155.9,234.8l-9.2-0.1v-7.6c0,0-0.1,0.1-0.1,0.1v7.6H1155.9z"/>
	<path class="st0" d="M1146.7,264L1146.7,264l0-0.6c0,0,0,0,0,0c0,0-0.1,0.1-0.1,0.1v0.5H1146.7z"/>
	<polygon class="st0" points="1146.6,249.3 1146.6,249.4 1155.9,249.4 1155.9,249.3 1146.7,249.3 	"/>
	<path class="st0" d="M250.8,264c0.1,1.1,0.3,1.9,0.8,2.4c-0.4-0.6-0.6-1.3-0.6-2.4H250.8z"/>
	<polygon class="st0" points="1255,150.1 1240.2,150.1 1240.2,134.6 1240.1,134.6 1240.1,150.2 1255,150.2 	"/>
	<path class="st0" d="M1363.5,267.2c-8.4,0-16.7,0-25,0v0.1C1346.9,267.3,1355.2,267.3,1363.5,267.2c2,0.1,3.9,0.1,5.8,0.1v-0.1
		C1367.3,267.2,1365.4,267.2,1363.5,267.2z"/>
	<polygon class="st0" points="1255,260.6 1240.2,260.6 1240.2,245 1240.1,245 1240.1,260.7 1255,260.7 	"/>
	<polygon class="st0" points="1255,238.5 1240.2,238.5 1240.2,223 1240.1,223 1240.1,238.6 1255,238.6 	"/>
	<rect x="1392.2" y="238.5" class="st0" width="12.8" height="0.1"/>
	<polygon class="st0" points="1307.8,217.4 1307.8,217.4 1307.8,230.3 1324.2,230.3 1324.2,230.3 1307.8,230.3 	"/>
	<rect x="1307.8" y="232" class="st0" width="0" height="12"/>
	<polygon class="st0" points="1231,172.2 1216.2,172.2 1216.2,156.7 1216.1,156.7 1216.1,172.3 1231,172.3 	"/>
	<polygon class="st0" points="1231,194.3 1216.2,194.3 1216.2,178.8 1216.1,178.8 1216.1,194.4 1231,194.4 	"/>
	<rect x="1289.9" y="230.3" class="st0" width="16.4" height="0"/>
	<rect x="1392.2" y="260.6" class="st0" width="12.8" height="0.1"/>
	<polygon class="st0" points="1231,150.1 1216.2,150.1 1216.2,134.6 1216.1,134.6 1216.1,150.2 1231,150.2 	"/>
	<polygon class="st0" points="1255,216.4 1240.2,216.4 1240.2,200.9 1240.1,200.9 1240.1,216.5 1255,216.5 	"/>
	<rect x="1264.2" y="260.6" class="st0" width="12.3" height="0.1"/>
	<rect x="1264.2" y="172.2" class="st0" width="12.3" height="0.1"/>
	<rect x="1264.2" y="150.1" class="st0" width="12.3" height="0.1"/>
	<polygon class="st0" points="1255,194.3 1240.2,194.3 1240.2,178.8 1240.1,178.8 1240.1,194.4 1255,194.4 	"/>
	<rect x="1264.2" y="194.3" class="st0" width="12.3" height="0.1"/>
	<rect x="1264.2" y="238.5" class="st0" width="12.3" height="0.1"/>
	<polygon class="st0" points="1255,172.2 1240.2,172.2 1240.2,156.7 1240.1,156.7 1240.1,172.3 1255,172.3 	"/>
	<rect x="1139.9" y="193.3" class="st0" width="0.1" height="3.7"/>
	<rect x="1414.1" y="150.1" class="st0" width="14.8" height="0.1"/>
	<rect x="1318.9" y="169.3" class="st0" width="14" height="0"/>
	<rect x="1368.7" y="169.3" class="st0" width="13.4" height="0"/>
	<polygon class="st0" points="1231,216.4 1216.2,216.4 1216.2,200.9 1216.1,200.9 1216.1,216.5 1231,216.5 	"/>
	<rect x="1194.2" y="260.6" class="st0" width="12.8" height="0.1"/>
	<rect x="1194.2" y="238.5" class="st0" width="12.8" height="0.1"/>
	<rect x="1414.1" y="238.5" class="st0" width="14.8" height="0.1"/>
	<rect x="1156" y="197" class="st0" width="0.1" height="8.4"/>
	<rect x="1414.1" y="216.4" class="st0" width="14.8" height="0.1"/>
	<rect x="1414.1" y="194.3" class="st0" width="14.8" height="0.1"/>
	<rect x="1414.1" y="172.2" class="st0" width="14.8" height="0.1"/>
	<polygon class="st0" points="1146.8,167.7 1156,167.7 1156,176 1156.1,176 1156.1,167.6 1146.8,167.6 	"/>
	<rect x="1156" y="182.3" class="st0" width="0.1" height="8.4"/>
	<rect x="1414.1" y="260.6" class="st0" width="14.8" height="0.1"/>
	<rect x="1194.2" y="216.4" class="st0" width="12.8" height="0.1"/>
	<rect x="1194.2" y="150.1" class="st0" width="12.8" height="0.1"/>
	<polygon class="st0" points="1231,260.6 1216.2,260.6 1216.2,245 1216.1,245 1216.1,260.7 1231,260.7 	"/>
	<polygon class="st0" points="1231,238.5 1216.2,238.5 1216.2,223 1216.1,223 1216.1,238.6 1231,238.6 	"/>
	<rect x="1392.2" y="216.4" class="st0" width="12.8" height="0.1"/>
	<rect x="1392.2" y="194.3" class="st0" width="12.8" height="0.1"/>
	<rect x="1194.2" y="172.2" class="st0" width="12.8" height="0.1"/>
	<rect x="1392.2" y="150.1" class="st0" width="12.8" height="0.1"/>
	<rect x="1194.2" y="194.3" class="st0" width="12.8" height="0.1"/>
	<rect x="1392.2" y="172.2" class="st0" width="12.8" height="0.1"/>
	<polygon class="st0" points="1284.4,267.3 1284.4,267.3 1284.4,164.3 1284.4,164.3 	"/>
	<path class="st0" d="M1114.5,271.6c0-5.1,4.1-9.2,9.2-9.2l0,0C1118.6,262.4,1114.5,266.5,1114.5,271.6c0,3.5,1.9,6.5,4.8,8.1
		C1116.4,278.1,1114.5,275.1,1114.5,271.6z"/>
	<path class="st0" d="M1095.5,236c0,0.1,0.1,0.2,0.1,0.3h9.6v-5.1c0,0-0.1-0.1-0.1-0.1v4.9H1095.5z"/>
	<path class="st0" d="M1119.8,296.5c0,24.6,0,48.9,0,73.8c-2.8,0-5.1,0-7.4,0c-328.5,0-656.9,0-985.6,0.3c328.6,0,657.1,0,985.7,0
		c2.3,0,4.5,0,7.4,0c0-24.9,0-49.3,0-73.8h-0.1v-6h-0.1L1119.8,296.5L1119.8,296.5z"/>
	<path class="st0" d="M1105.7,281.8c-0.3-1.1-0.5-2.3-0.5-3.6v-10.4c0,0-0.1-0.1-0.1-0.1v10.2
		C1105.1,279.3,1105.3,280.6,1105.7,281.8z"/>
	<rect x="1109.8" y="156.9" class="st0" width="14.2" height="0.1"/>
	<path class="st0" d="M186.9,264c0,0,0,0.1,0,0.1C186.9,264.1,186.9,264,186.9,264L186.9,264z"/>
	<path class="st0" d="M1119.3,279.7c1.3,0.7,2.8,1.1,4.4,1.1l0,0C1122.1,280.8,1120.6,280.4,1119.3,279.7z"/>
	<path class="st0" d="M1123.7,236.9c5.1,0,9.2,4.1,9.2,9.1c0,0,0,0,0,0C1132.9,240.9,1128.8,236.8,1123.7,236.9
		c-5.1-0.1-9.2,4.1-9.2,9.1c0,0,0,0,0,0C1114.5,241,1118.6,236.9,1123.7,236.9z"/>
	<path class="st0" d="M1128.1,279.7C1128.1,279.7,1128.1,279.7,1128.1,279.7C1128.1,279.7,1128.1,279.7,1128.1,279.7z"/>
	<path class="st0" d="M1123.7,211.4c5.1,0,9.2,4.1,9.2,9.1c0,0,0,0,0,0C1132.9,215.4,1128.8,211.3,1123.7,211.4
		c-5.1-0.1-9.2,4.1-9.2,9.1c0,0,0,0,0,0C1114.5,215.5,1118.6,211.4,1123.7,211.4z"/>
	<path class="st0" d="M1095.5,254.3c0,0.1,0.1,0.2,0.1,0.3h9.6v-5.1c0,0-0.1-0.1-0.1-0.1v4.9H1095.5z"/>
	<path class="st0" d="M187.1,265.4C187.1,265.3,187.1,265.3,187.1,265.4C187.1,265.3,187.1,265.3,187.1,265.4z"/>
	<path class="st0" d="M716.1,223.6c0-6.6,5.4-12.1,12.1-12h5.3c3.3,0,6.3,1.3,8.4,3.5c-2.2-2.2-5.2-3.6-8.5-3.6v0H728
		C721.4,211.5,716,216.9,716.1,223.6l-0.1,43.6c0,0,0.1,0,0.1,0V223.6z"/>
	<rect x="933.9" y="166.7" class="st1" width="9.3" height="8.4"/>
	<rect x="933.9" y="181.4" class="st1" width="9.3" height="8.4"/>
	<rect x="933.9" y="240" class="st1" width="9.3" height="8.4"/>
	<rect x="933.9" y="254.6" class="st1" width="9.3" height="8.4"/>
	<rect x="933.9" y="196" class="st1" width="9.3" height="8.3"/>
	<rect x="933.9" y="225.4" class="st1" width="9.3" height="8.4"/>
	<rect x="933.9" y="210.7" class="st1" width="9.3" height="8.4"/>
	<rect x="1109.8" y="193.3" class="st1" width="14.2" height="3.7"/>
	<rect x="1109.8" y="187.6" class="st1" width="14.2" height="3.7"/>
	<rect x="1109.8" y="153.3" class="st1" width="14.2" height="3.6"/>
	<rect x="1109.8" y="170.4" class="st1" width="14.2" height="3.7"/>
	<rect x="1109.8" y="159" class="st1" width="14.2" height="3.7"/>
	<rect x="1109.8" y="181.9" class="st1" width="14.2" height="3.7"/>
	<rect x="1109.8" y="176.1" class="st1" width="14.2" height="3.7"/>
	<rect x="1109.8" y="164.7" class="st1" width="14.2" height="3.7"/>
	<rect x="1125.6" y="164.7" class="st1" width="14.3" height="3.7"/>
	<rect x="1125.6" y="176.1" class="st1" width="14.3" height="3.7"/>
	<rect x="1125.6" y="170.4" class="st1" width="14.3" height="3.7"/>
	<rect x="1125.6" y="193.3" class="st1" width="14.3" height="3.7"/>
	<rect x="1109.8" y="147.5" class="st1" width="14.2" height="3.7"/>
	<rect x="1125.6" y="187.6" class="st1" width="14.3" height="3.7"/>
	<rect x="1125.6" y="181.9" class="st1" width="14.3" height="3.7"/>
	<rect x="933.9" y="152.1" class="st1" width="9.3" height="8.4"/>
	<path class="st1" d="M1142.6,254.3v-5.2c-0.1,0.1-0.2,0.2-0.3,0.2v5H1142.6z"/>
	<path class="st1" d="M1142.6,267.2C1142.6,267.3,1142.5,267.3,1142.6,267.2C1142.5,267.3,1142.6,267.3,1142.6,267.2L1142.6,267.2z"
		/>
	<path class="st1" d="M1146.7,249.3h9.2V241h-6.2c0,0.1-0.1,0.1-0.1,0.2c-0.9,1.4-1.8,2.7-2.9,4c0,0-0.1,0.1-0.1,0.1L1146.7,249.3
		L1146.7,249.3z"/>
	<path class="st1" d="M1190.4,128.8L1190.4,128.8h16.6h0h9.1h0h64.2h0v138.5c1.4,0,2.7,0,4.1,0v-103h0h100.1h0v103
		c1.2,0,2.4,0,3.6,0c0,0,0,0,0,0c0.1,0,0.2,0,0.3,0V128.8h0h16.6h0h9.1h0h64.2h0v138.4c11.3,0,22.6,0,33.9,0c2.2,0,4.3,0.1,6.5,0.1
		c-0.2-1.5-0.2-2.8-0.5-4.3c-4.1-17.1-8.3-34.1-12.3-51.2c-3.8-16.3-7.5-32.7-11.1-49c-0.6-2.9-2.2-3.7-5-3.5c-3.6,0.2-7.1,0-11.3,0
		c0-17.9,0-34.8,0-52.2c-6.1,0-11.7,0-17.7,0c1-3,2.1-5.3,2.4-7.7c0.2-1.7-0.2-4.3-1.3-5.1c-1.5-1.1-2.8-2.1-4.3-3.1v20h-0.1h-47.9
		h-0.1v-32h0.1h32.6c-11.9-9.4-23.7-18.8-37.2-26.1c-7.2-3.9-13.4-6.3-21.7-3.4c-5.1,1.8-11.1,2.1-16.5,1.5
		c-5.5-0.7-10.7-3.4-16.1-5.1c-4.4-1.3-7.2-3.8-8.7-8.4c-3.6-10.8-7.8-21.3-11.9-32.5c-5.5,3.3-11.1,7-17.1,10
		c-2.3,1.2-5.7,1.4-8.2,0.8c-4.3-1.1-8.3-3.4-12.6-4.7c-1.4-0.4-3.7-0.1-4.7,0.9c-5,4.9-9.6,10.2-14.5,15.1
		c-2.9,2.9-5.8,6.5-9.4,7.6c-4.7,1.5-10.1,1.2-15.3,1.2c-10.8,0.2-21.4,1-31.7,5c-4.4,1.7-9.7,1.8-14.6,1.9c-4.2,0-8.5-1.1-12.7-1.8
		c-6.8-1-8.2,0-9.4,6.6c-0.5,2.4-1.5,4.8-1.9,7.2c-0.4,3.2-1.8,4.7-4.4,5.1h6.5v207.2c3.5,0,6.8,0,10.3,0V128.8z M1404.6,112.9h57.5
		v4.1h-57.5V112.9z M1399.1,118h68.6v4.1h-68.6V118z M1393.7,123.2h79.3v4.1h-79.3V123.2z M1384.5,110.3v44.5h-100.1L1384.5,110.3z
		 M1284.4,156h100v7.5h-100V156z M1232.3,72.3l28.1,19.6h-0.1l0.1,0.1h-56.2l0.1-0.1h-0.1L1232.3,72.3z M1204,93.6h56.8l19.6,33.5
		h-89.9h-0.1L1204,93.6z"/>
	<path class="st1" d="M1155.9,234.7v-8.3h-8.6c-0.1,0.1-0.1,0.1-0.2,0.2c-0.1,0.1-0.2,0.3-0.3,0.4c0,0-0.1,0.1-0.1,0.1v7.6H1155.9z"
		/>
	<path class="st1" d="M1155.9,264v-8.4h-4.5c0,0.1-0.1,0.1-0.1,0.2c-1.1,2.7-2.6,5.3-4.6,7.6v0.6H1155.9z"/>
	<path class="st1" d="M1138,204.8c0.8,0.7,1.3,1.3,1.9,2.1v-2.1H1138z"/>
	<path class="st1" d="M1142.6,231c-0.1,0.1-0.2,0.2-0.3,0.2v4.8h0.3V231z"/>
	<path class="st1" d="M1139.9,199h-14.3v2.6h4.1c1.8,0,3.6,0.4,5.1,1.1h5.1V199z"/>
	<path class="st1" d="M1109.8,199v3.7h2.8c1.6-0.7,3.3-1.1,5.1-1.1h6.2V199H1109.8z"/>
	<path class="st1" d="M1155.9,211.7h-9.1v6h5.1c0,0.1-0.1,0.2-0.1,0.3h0.1c-0.3,0.7-0.5,1.4-0.8,2h4.8V211.7z"/>
	<rect x="1065.2" y="170.5" class="st1" width="16.3" height="12.7"/>
	<rect x="1065.8" y="131.2" class="st1" width="16.3" height="13.5"/>
	<path class="st1" d="M949,267.3V188h158.2h0.1v19.2c0.3-0.4,0.6-0.8,1-1.2l0-0.1c0,0-0.1,0.1-0.1,0.1l0.3-60.5v-0.2h32.9v0.2h0.2
		V210c0.5,1.3,0.8,2.8,0.8,4.3v3.5h0.5v0h-0.3V60.3h24.5h0.3c-8.2-0.2-16.6,0-25.3,0c0,2.4,0,4.2,0,5.9c0,16.8-0.1,33.7,0.1,50.5
		c0,3.4-1.1,5.4-4.1,7.2c-9.2,5.7-18.1,11.8-27.1,17.8c-1.1,0.7-2.2,1.4-3.5,2.1v42.8h-0.2H949V159c-0.6,0-1.1,0-1.7,0v108.3
		C947.9,267.3,948.4,267.3,949,267.3z"/>
	<rect x="1065.2" y="155" class="st1" width="16.3" height="14.4"/>
	<rect x="1037.7" y="116.5" class="st1" width="14.6" height="13.5"/>
	<rect x="1037.7" y="131.2" class="st1" width="14.6" height="13.5"/>
	<rect x="1022.2" y="116.5" class="st1" width="14.3" height="13.5"/>
	<rect x="1022.2" y="131.2" class="st1" width="14.3" height="13.5"/>
	<path class="st1" d="M244.9,234.8c0-1.3,0-2.5,0-3.8c-0.5,0-0.9-0.1-1.4-0.1c-0.2,0.6-0.5,1.3-0.7,1.9c-0.2,0.6-0.5,1.3-0.7,1.9
		c-0.5,1.3-1,2.7-1.5,4.1c-0.3-0.6-0.5-1.1-0.7-1.6c-0.2-0.5-0.3-0.9-0.5-1.3c-0.4-0.1-0.9-0.2-1.3-0.3c-0.5,1.4-1.1,2.7-1.6,4.2
		c-0.3,1-0.7,2-1.1,3c-0.6,1.5-1.2,3.2-1.9,5c0.2-3,0.3-4.8,0.4-6.6c-0.3,0-0.5-0.1-0.8-0.1c-0.1,0.4-0.3,0.7-0.4,1.1
		c-0.1,0.4-0.3,0.7-0.4,1.1c-0.3,0.7-0.5,1.4-0.8,2.1c-0.4,1.1-0.8,2-1.1,2.8c-0.1,0.3-0.2,0.6-0.3,0.8c-0.6,0.1-1.1,0.1-1.6,0.1
		c-0.7,0-1.3,0.1-1.9,0.1c-0.6,0-1.2,0.1-1.8,0.1c0.3-1,0.7-1.9,1-2.8c0.5-1.4,1-2.8,1.5-4.2c0.2-0.5,0.3-0.9,0.5-1.4
		c1.1-3.3,1.9-6.8,1.8-10.6c-0.1-1.6-0.3-3.3-0.8-5.1c-1.2,1.5-2.3,2.8-3.3,4c-0.5,0.6-1,1.3-1.5,1.8s-0.9,1.1-1.4,1.7
		c-0.2-0.6-0.5-1.1-0.8-1.7c-0.2-0.6-0.6-1.2-0.9-1.9c-0.7,0.6-1.3,1.2-1.7,1.8c-0.2,0.3-0.4,0.6-0.6,0.9c-0.3,0.6-0.5,1.1-0.5,1.7
		c0,0.2,0,0.5,0.1,0.7c0.1,0.2,0.2,0.4,0.3,0.7c0.1,0.3,0.3,0.5,0.5,0.8c0.2,0.2,0.4,0.5,0.7,0.8c0.1,0,0.1,0.1,0.1,0.1
		c0.1,0.1,0.1,0.2,0.2,0.3c0.1,0,0.1,0.1,0.1,0.1c0,0.1,0.1,0.2,0.1,0.3v0.1c0,0.1,0.1,0.2,0.1,0.3c0,0.1,0,0.1,0,0.1
		c0.3,0.7,0.4,1.6,0.6,2.3c-2.6-1.1-5.2-2.3-7.8-3.5c0,0-0.1,0.1-0.1,0.2c0,0.1-0.1,0.2-0.1,0.3c-5.8-2.8-11.6-5.7-18-8.9
		c0.8,2.1,1.9,3.8,3.2,5.3c0.4,0.4,0.8,0.8,1.2,1.2c0.6,0.6,1.2,1.1,1.9,1.6c0.9,0.7,1.8,1.3,2.7,1.9c3.8,2.4,7.7,4.5,10.1,8.1
		c-0.6,0.4-1.2,0.8-1.8,1.2c-1.2,0.8-2.3,1.5-3.5,2.3c-0.6,0.4-1.2,0.8-1.8,1.2c-0.8-0.3-1.7-0.8-2.8-1.3c-1.1-0.6-2.4-1.2-3.9-1.9
		c0,0,0,0.1,0,0.1c0,3,0,5.7,0,8.3c-4.3-3.8-8.1-7.2-11.9-10.6c-0.2,2.8-0.5,5.7-0.7,8.7c-0.3,3-0.5,6-0.7,9c0,0.2,0,0.5,0,0.7h0
		c0,0,0,0.1,0,0.1c0,0.5,0.1,0.9,0.2,1.2c0,0,0,0,0,0c0.1,0.2,0.1,0.3,0.2,0.4c0.4,0.6,1.1,1,1.9,1.2c0.3,0.1,0.6,0.2,0.9,0.2
		s0.6,0,1,0c8.2,0,16.3,0,24.5,0s16.3,0.1,24.5,0.1c2.2,0,3.2-0.5,3.6-2c0.1-0.4,0.1-0.8,0.2-1.3c0-0.2,0-0.3,0-0.5
		c0.1-5.8,0.7-11.6,0.9-17.4C245,242.3,244.9,238.6,244.9,234.8z"/>
	<polygon class="st1" points="241.2,181.9 241,182.3 241.4,182.1 	"/>
	<path class="st1" d="M205.3,216.9c0.2,0.1,0.5,0.1,0.9-0.1c0.2-0.1,0.5-0.3,0.9-0.5c0.5-0.3,1.2-0.6,2-1c-0.4-0.2-0.8-0.4-1.2-0.6
		c-2.6-1.4-4.4-2.4-6.3-3.1c0,0-0.1,0-0.2,0c-0.2,0-0.4,0.2-0.6,0.3c-0.2,0.1-0.5,0.3-0.7,0.5c-0.1,0.1-0.3,0.3-0.5,0.4
		c-0.2,0.1-0.4,0.3-0.4,0.5c0.5,0.3,1,0.6,1.5,0.9C202.2,215.2,203.7,216.2,205.3,216.9z"/>
	<path class="st1" d="M104,182.6c-0.4,0.2-0.7,0.4-1.1,0.7c0.4-0.1,0.9-0.3,1.3-0.3C104.2,182.9,104.1,182.7,104,182.6z"/>
	<path class="st1" d="M108.5,267.9c3.7,0,5.9-1.1,5.9-4.7c0.2-12.1,0.1-24.3-0.6-36.9c0.5,7.4-6.9,6.8-10,10.3
		c-0.1-0.3-0.4-1-0.8-2.2c-0.7,2.7-1.3,5-1.9,7.3c-3.9-0.9-3.7-0.8-3.1-3.9c0.6-2.7,0.8-5.4,1.1-8.1c-0.5-0.1-1-0.2-1.5-0.3
		c-0.8,1.7-1.7,3.4-2.8,5.6c-0.7-1.2-1.2-2-1.4-2.2c-1.5,0.5-2.9,1-4.3,1.5c-0.5,0.2-0.9,0.3-1.4,0.5c-0.1-0.5-0.2-1-0.3-1.4
		c-0.1-0.4-0.2-0.9-0.3-1.4c-6.6,4.1-6.6,4.1-10.3,1.9c0.5-5.2,3.9-1.4,5.9-1.5c-0.4-5.3,2.2-8.1,7.3-10.7c4.2-2.1,7.8-5.4,11.4-8.5
		c1.9-1.7,3.2-4.1,5.2-6.7c-5-1.7-5.9,3.1-8.7,5.1c-0.8-0.8-1.6-1.7-2.6-2.8c-1.4,1.8-2.7,3.4-4,5.1c-3.2-3-5.2-1.6-7.8,5.6
		c-0.6-1.3-1-2.2-1.2-2.6c-3.2,1.7-6.4,3.4-9.6,5.1c-0.5-0.6-1.1-1.2-1.6-1.8c3.5-4.3,7-8.5,10.4-12.8c1.8-2.3,3.4-4.7,5-7
		c-0.7-0.6-1.4-1.2-2.1-1.8c-0.5,1-1.1,2-1.9,3.5c-1-0.9-1.9-1.7-3.2-2.9c2-1.7,3.4-3.6,5.4-4.6c4-2,8.4-3.3,12.4-5.2
		c0.3-0.1,0.6-0.3,0.9-0.5c0.3-0.2,0.6-0.4,0.9-0.7c0.1,0,0.1-0.1,0.2-0.1c0.1-0.2,0.3-0.3,0.4-0.4c0.7-0.7,1.4-1.5,2.1-2.1
		c0.1-0.1,0.1-0.1,0.1-0.1c-1.3-0.5-2.7-1.1-4-1.6c0.1,0.5,0.2,0.9,0.3,1.4c-5.5,1.2-10.9,2.4-17.7,3.9c4.1-3.4,4-8.9,10.6-8.9
		c6.5,0,12.2-3.8,15.2-9c-3.7,0.5-6.5,1-9.2,1.4c-0.1,0.5-0.1,1-0.2,1.5c-0.4-0.9-0.7-1.7-1.1-2.5c-2,0.4-4,0.9-6,1.3
		c-0.3-0.7-0.6-1.5-0.9-2.3c3.9-1.8,7.8-3.6,11.6-5.6c3.9-2.1,7.6-4.5,12.2-7.3c-2.8-1.2-4.5-1.9-6.5-2.8c-0.9,1-1.8,2.1-2.7,3.2
		c-2.5-1-4.7-2-7.8-3.3c10.1-5.5,20.4-10.2,20-24.1c2.4,11.1,9.3,17.9,17.7,23.5c-4.6,5-4.6,5-10.8,1.4c0.7,1.4,1,3.3,2.1,4.2
		c4.4,3.6,9.1,7,13.7,10.5c2,1.5,4.1,3,6.5,4.7c-0.3,0.1-0.6,0.3-0.8,0.4c-0.3,0.2-0.5,0.3-0.7,0.4c-0.3,0.1-0.5,0.2-0.8,0.3
		c-0.4,0.1-0.7,0.2-1.1,0.2c-0.3,0-0.7,0-1.2-0.1c-0.2-0.1-0.4-0.1-0.7-0.2c-0.1,0-0.3-0.1-0.4-0.1c-0.1,0-0.2-0.1-0.4-0.1
		s-0.3-0.1-0.4-0.1h-0.1c-0.1,0-0.3-0.1-0.4-0.1h-0.1c-0.2-0.1-0.3-0.1-0.5-0.2c-0.1,0-0.1,0-0.1,0c-0.1-0.1-0.3-0.1-0.5-0.2h-0.1
		c-0.2,0-0.4-0.1-0.6-0.2c-0.4-0.2-0.9-0.4-1.4-0.6c-0.6-0.2-1.1-0.5-1.7-0.7c-0.9-0.4-1.8-0.8-2.9-1.2c4.8,4.9,9.6,9.8,14.4,14.7
		c0.3,0.4,0.7,0.7,1.1,1c-1.1,0.9-1.1,0.8-5.5-1c-1.6-0.6-3.4-0.6-6.2-1.1c-0.1,0-0.8,1-2,2.7c-1.1-2.5-2.1-4.5-2.8-6
		c-1.7,0.2-3.1,0.5-5.2,0.8c7.1,10,17.7,14.6,27.4,20.1c-4.5-0.8-9.1-1.6-13.7-2.4c-0.3,0.5-0.5,1.1-0.8,1.6
		c1.5,1.5,2.8,3.4,4.6,4.4c4.1,2.3,9,3.5,12.6,6.4c3,2.4,4.6,6.5,7.5,10.8c-4.3-1-7.6-1.8-11.4-2.7c0,1.3,0,3.4,0,5.6
		c-2.5,1.4-4.2,0.9-5.6-0.4c-0.4-0.4-0.8-0.7-1.1-1.1c-0.3-0.4-0.7-0.8-1-1.2c-0.7-0.9-1.4-1.7-2.2-2.5c0.2,2.1,0.4,3.3,0.5,4.3
		c-2.2-1.8-4.3-3.5-6.5-5.2c0.5,3.5,1.1,6.9,1.6,10.4v0.1c0.1,1.2,0.3,2.3,0.4,3.5c0.2,1.8-0.2,3.6-0.4,5.4
		c-0.5,0.1-0.9,0.1-1.4,0.2c-0.9-1.3-1.8-2.5-2.7-3.8c-0.6,0.7-1,1.2-1.6,1.9c-2.6-9.2-2.8-9.4-5.7-7.6c-0.7-2-1.5-4-2.2-6
		c-0.5,0-1,0.1-1.5,0.1c0.7,12.7,1.5,25.4,2.2,38.4h0.3c0.1,1,0.1,2,0.2,3c1.7,0.2,2.9,0.5,4.1,0.5c17,0,33.9-0.1,50.9,0.1
		c3.7,0.1,5.1-0.9,4.9-4.7c-0.1-3.6,0.7-7.3,0.8-10.9c0-1.9-0.4-3.8-0.7-6.7c-2.9,3.3-5.2,5.9-7.2,8.2c0.1,0.2,0.1,0.3,0,0
		c0,0,0,0,0,0c-0.1-0.2-0.1-0.4-0.2-0.7c-1.5,1.5-3.1,3-5,4.8c0.3-2.2,0.5-4.2,0.8-6.2c0.1-0.5,0.1-0.9,0.2-1.4
		c0-0.3,0.1-0.6,0.1-0.9c0.1-1.1,0.3-2.2,0.4-3.3c0.1-0.5,0.1-0.9,0.2-1.3c0.1-1.1,0.3-2.1,0.4-3.1c-0.1,0-0.3,0.1-0.4,0.2
		c-2.4,1.3-4.8,2.7-7.3,3.8c-1.3,0.6-2.9,0.7-4.8,1.1c0.2-2.5,0.4-4.4,0.5-5.6c-2.7,0.5-5.3,1-7.9,1.5c1.1-2.8,2.5-5.2,4.3-7.1
		c2.4-2.4,5.4-4.2,9.3-5c1.7-0.4,3-2.1,4.5-3.2c-0.1-0.4-0.2-0.9-0.3-1.3c-2.6-0.1-5.1-0.3-7.7-0.4c0.4-0.5,0.7-1,1.1-1.4
		c0.2-0.1,0.3-0.2,0.5-0.3c1.1-0.5,2.3-0.9,3.4-1.3c0.6-0.3,1.1-0.5,1.7-0.7c1.1-0.5,2.2-1,3.1-1.7c1.4-1.1,2.6-2.5,3.2-4.6
		c0.2-0.1,0.4-0.3,0.6-0.4c1.5-0.9,3-1.9,5.1-3.2c-0.3-0.1-0.5-0.2-0.8-0.3c-1.8-0.7-2.9-1-4.2-1.5c-0.1,0.7-0.2,1.4-0.3,2.1
		c-0.1,0.7-0.2,1.3-0.3,2c-0.1,0.4-0.1,0.9-0.2,1.3c-3.5-1.8-6.8-3-9.9,1c-0.6,0.8-2.9,0.5-4.8,0.7c3.9-3.7,7.5-7.1,11-10.4
		c-0.1-0.4-0.3-0.9-0.4-1.3c-2.1-0.2-4.1-0.4-6.2-0.6c-0.3-0.4-0.5-0.7-0.8-1.1c3.4-1.9,7-3.5,10-5.9c2.8-2.3,6.3-4.5,6.8-9
		c-3.2,2.7-6.1,3.5-9-0.4c7.4-3.9,12.2-10.1,14.8-18.4c0.5,10.9,8.8,14.5,16.7,18.9c-2.3,0.6-4.3,1.3-6.4,1.5
		c-1.9,0.1-3.9-0.3-5.9-0.5c-0.1,0.7-0.3,1.4-0.5,2.1c3.6,1.7,7.3,3.5,10.9,5.3c1.2,0.6,2.7,0.8,3.6,1.6c0.9,0.8,1.2,2.1,1.7,3.2
		c-1,0-2,0.2-3,0.2c-2.7,0-5.4,0-8.1,0c-0.2,0.6-0.3,1.3-0.5,1.9c2.6,1.2,5.3,2.5,8,3.5c5,1.9,9.8,4.8,15.8,2.7
		c3.1-1.2,5.6-3.4,5.8-8.5c-5.7,1.5-11.1,2.9-16.5,4.3c2.1-1.3,4.3-2.7,6.4-4.1c2.2-1.4,4.4-2.7,6.6-3.9c3.1-1.6,6.6-2.5,9.9-3.7
		c0-0.5-0.1-0.9-0.1-1.4c-0.9-0.2-1.9-0.5-2.8-0.8c2.9-1.8,5.9-3.4,8.6-5.5c1.5-1.1,2.3-3,3.4-4.5c-0.8-0.4-1.5-1-2.3-1
		c-1.1,0-2.2,0.4-4,0.8c-0.5,1.2-1.3,3.3-2.9,7.1c-0.5-0.1-1-0.3-1.4-0.4c-1.1-0.4-2.1-0.7-3-1c-0.6-0.2-1.1-0.3-1.6-0.5
		c-0.1,0.1-0.1,0.2-0.2,0.3c-0.1-0.2-0.1-0.3-0.2-0.4c-0.1,0-0.1,0-0.1,0c0-0.2-0.1-0.4-0.2-0.6c-0.2-0.4-0.3-0.9-0.5-1.3
		c-4.1,2.1-8.2,4.3-12.4,6.5c-0.2-0.3-0.3-0.7-0.5-1c7.6-7.1,15.2-14.1,23.5-21.8c-6.4,1-11.2,6.9-18.8,3.1c2-1.7,3.6-3.8,5.7-4.7
		c6.8-3,13-6.7,17.7-12.5c1.2-1.5,1.6-3.6,2.9-6.6c-3.6,1.8-5.7,3.4-8,4c-0.3,0-0.6,0.1-0.8,0.1c-0.1,0-0.1,0-0.2,0
		c-0.2,0-0.4,0-0.5,0c-0.1-0.1-0.2-0.1-0.3-0.2c0-0.1-0.1-0.1-0.1-0.1c-0.2-0.1-0.2-0.2-0.3-0.3c0-0.2-0.1-0.3-0.1-0.5
		c0-0.6,0.2-1.2,0.6-2c-0.5,0-1,0-1.5,0c-1.2,0-2.3,0-3.5,0c1.2-1,2.4-2,3.6-3c2.6-2.2,5.2-4.3,7.7-6.5c6-5.2,9.3-11.9,10.4-19.4
		c2.9,6,4.7,12.7,8.8,17.3c4.4,4.8,11,7.6,17.7,12c-1.4-0.1-2.6-0.1-3.8-0.2c-0.4-0.1-0.8-0.1-1.2-0.1c-1.4-0.1-2.8-0.1-4.1-0.2
		c0,0.1-0.1,0.3-0.1,0.4c0,0.2-0.1,0.3-0.1,0.5c-0.1,0.5-0.2,1.1-0.4,1.8c-0.1,0.2-0.1,0.4-0.2,0.7c-1.7-1.9-3-3.4-4-4.5
		c-2.4,1-4.6,2-7.5,3.2c5.6,4.5,11.1,8.3,17.8,10.4c3.4,1.1,6.4,3.4,9.8,5.3c-3.5,5.2-5.9,1.8-8.8,0c-0.1,1.7-0.2,2.8-0.2,2.9
		c-3.5-0.7-7-1.4-10.4-2.1c-0.3,0.7-0.6,1.3-0.9,1.9c2.5,1.8,4.7,4.2,7.5,5.2c4.5,1.7,9.8,1.6,13.9,3.8c3.1,1.7,5,5.7,8.3,9.8
		c-4-1.5-6.7-2.4-9.3-3.4c-0.4,1-0.7,1.8-1.3,3.2c-0.9-1.8-1.5-3.1-2.5-5.1c-0.4,1.6-0.6,2.3-0.9,3.4c-2.2-1.5-4.4-3-6.8-4.7
		c-1,0.9-2.2,2.1-4.3,4.1c2.1,1,3.6,1.9,5.3,2.5c7.5,3,15.6,4.9,21.2,11.5c1.1,1.3,2,2.9,2.9,4.2c-2.1,2.8-4-5.3-5.6,1.1
		c-1.5-2.3-2.6-4-4.6-7c-0.6,3-0.9,4.7-0.9,4.9c6.3,7.7,12,14.6,17.7,21.6c-6.1,0.6-10.9,0-12.8-7.1c-0.7,2.7-1.1,4-1.5,5.6
		c-5.3-8.9-5.8-9.2-9.4-5.8c-1.2-1.8-2.4-3.6-3.7-5.3c-0.2-0.3-0.8-0.4-1.5-0.7c-0.5,1.2-0.9,2.1-1.2,3c-4.6-0.3-4.5-9.3-12.5-5.6
		c4.9,4.4,9,8.2,13.3,11.7c7.1,5.8,14.3,11.3,21.3,17c1.1,0.9,1.6,2.6,2.4,3.9c-0.3,0.3-0.7,0.6-1,0.9c-2.3-2-4.6-4-6.9-6
		c-0.3,0.3-0.6,0.6-0.9,0.9c1.2,1.7,2.4,3.5,3.6,5.2c-0.3,0.3-0.5,0.6-0.8,0.9c-2.5-2.3-5.1-4.5-8.6-7.6c0.7,2.6,1.2,4,1.6,5.4
		c-1.3,0.4-2.6,0.7-4.2,1.2c-0.4-1-1-2.4-1.9-4.7c-1.2,1.7-2,2.9-3,4.5c-1-2.3-1.9-4.3-3.1-7.1c-0.2,0.4-0.4,0.7-0.6,1
		c-0.1,0-0.1,0.1-0.1,0.1c-0.2,0.3-0.3,0.5-0.4,0.8c-0.1,0.1-0.1,0.1-0.1,0.2c-0.1,0.2-0.1,0.5-0.2,0.7c-0.1,0.1-0.1,0.2-0.1,0.3
		c0,0.2-0.1,0.4-0.1,0.6c0,0.1,0,0.1,0,0.2c-0.1,0.2-0.1,0.5-0.1,0.7c0,0.1,0,0.1,0,0.1c0,0.4,0,0.7,0,1.1c0.1,0.6,0.2,1.2,0.3,1.8
		c0,0.3,0.1,0.7,0.2,1.1c0.1,0.4,0.1,0.7,0.2,1c0.1,0.5,0.1,0.9,0.2,1.3c0.1,0.7,0.1,1.3,0.1,2c-0.1,0.3-0.1,0.7-0.2,1.1
		c-0.3,0-0.5,0-0.7,0c-0.3,0-0.5,0-0.8,0c-0.6,0-1.2,0.1-1.9,0.1c-0.4-1.4-1.1-3.9-1.9-6.5c-0.6,0.7-1,1.2-1.7,2
		c-0.7-1.8-1.3-3.4-2.2-5.7c-0.6,1.5-1,2.3-1.4,3.3c-0.6-1.2-1.1-2.4-1.7-3.6c-0.8,0.7-1.5,1.3-2.6,2.1c-1.2-3.5-2.3-6.7-3.4-9.9
		c-0.6,0.1-1.2,0.1-1.8,0.2c0,10.8,0.1,21.5-0.1,32.2c0,0.2,0,0.4,0,0.6h0.2c0,1.1,0.2,1.8,0.6,2.4c0.7,0.8,1.8,1.1,3.4,0.9
		c1.2-0.1,2.3,0,3.5,0c135.3,0,270.6,0,405.9,0v-98.2H760v0.3v97.9c3.2,0,6.5,0,9.7,0V123.5c-2.8-3.6-4.7-6.3-6.8-8.7
		c-9.1-10.3-15-21.9-17.5-35.6c-1.9-10.2-5.3-20.2-9.3-29.8c-3.8-9.2-9.2-17.7-14-26.4c-2.3-4.2-4.3-8.9-7.7-12
		c-4.1-3.7-9.5-6.1-14.5-8.6c-4.1-2-8.3-2-11.6,2.1c-2.5,3.1-5.2,6-8,8.9c-2.2,2.3-4.5,3.2-8,2.3c-4.5-1.1-9.2-1.3-13.8-1.3
		c-1.7,0-3.9,1-5.1,2.2c-4.3,4.2-8.4,8.6-12.2,13.1c-8,9.5-16.5,18.7-23.5,29c-5,7.3-10.4,11.5-19.2,10.7c-0.2,0-0.4,0.4-0.7,0.7
		c0.8,2.1,1.7,4.2,2.6,6.6c-25.4,10-52.6,14.2-75.1,29.4c-1.8-1.6-3.2-2.7-4.5-3.9c-5.4-4.9-10.7-9.8-16.2-14.6
		c-4.8-4.2-10.6-6.2-16.8-7.4c-2.6,13.3-2.6,13.4-7.8,17.6c-6.9,5.6-13.9,11.1-21.7,17.2c-0.5-3.4-1-5.8-1.2-8.2
		c-0.6-5.5-1-10.8-4.6-15.4c-8.7-11.1-13.7-23.7-15.6-37.7c-1-7-3.8-13.2-8.5-18.8c-5.1-6.1-9.7-12.7-14.3-19.2
		c-8.7-12.4-8.7-12.2-24-12.5C384.2,3,379.6,4,375.8,8.6c-2.8,3.4-6.7,5.9-9.9,9.1c-6.1,6.2-12.8,10.4-22,8.6
		c-4.9-1-7.7,1.3-10.4,5.4c-6.9,10.7-14.5,20.9-22.1,31.8c-9.4-13.8-18.3-27-27.3-40.3c-12.8,3.2-25.3,6.8-37.9,9.2
		c-7.4,1.4-12.7,4.8-15.8,11.2c-4.2,9-10.8,11.7-20.4,10.7c-18-2-35.5,1.1-52,8.5c-5.2,2.3-8.1,0.6-11.2-3.6
		c-9-12.3-18.3-24.3-28.3-37.4c-3.9,2.8-9.7,5-12.8,9.3c-14.3,19.6-24.9,41.2-35,63.2c-2.7,5.9-5.1,12.1-9,17.2
		c-7.7,10-16.7,19-24.3,29c-5.1,6.7-12.3,11.7-14.2,21.4c-6,30.4-13.2,60.6-20,90.9c-1.1,5-2,10.1-3.1,15c27.1,0,54.1,0,81.2,0
		C90.4,267.8,99.4,267.9,108.5,267.9z"/>
	<path class="st1" d="M197.1,210.9c0,0,0-0.2,0-0.3c0,0-0.1,0-0.2-0.1s-0.1,0-0.2,0c0,0.2,0,0.4-0.1,0.5c0.1,0,0.1,0,0.2,0
		C197,210.9,197.1,210.9,197.1,210.9z"/>
	<path class="st1" d="M263.2,181.8c1,0.4,2,0.9,3,1.3c0.2-0.4,0.3-0.7,0.5-1.1c-1-0.5-2-0.9-3-1.4
		C263.5,180.9,263.3,181.3,263.2,181.8z"/>
	<path class="st1" d="M173.7,203.5c0,0.2,0.1,0.5,0.1,0.7c0.7-0.3,1.4-0.6,2.1-0.9C175.1,203.3,174.4,203.4,173.7,203.5z"/>
	<rect x="1125.6" y="159" class="st1" width="14.3" height="3.7"/>
	<rect x="1065.8" y="116.5" class="st1" width="16.3" height="13.5"/>
	<rect x="1083.3" y="116.5" class="st1" width="16.3" height="13.5"/>
	<rect x="1082.6" y="170.5" class="st1" width="16.3" height="12.7"/>
	<rect x="1082.6" y="155" class="st1" width="16.3" height="14.4"/>
	<rect x="1083.3" y="131.2" class="st1" width="16.3" height="13.5"/>
	<rect x="959.6" y="155" class="st1" width="16.3" height="13.9"/>
	<rect x="959.6" y="170.1" class="st1" width="16.3" height="13.1"/>
	<rect x="960" y="116.5" class="st1" width="16.3" height="14.1"/>
	<rect x="960" y="131.8" class="st1" width="16.3" height="12.9"/>
	<rect x="1007.3" y="116.5" class="st1" width="13.7" height="13.5"/>
	<rect x="1125.6" y="153.3" class="st1" width="14.3" height="3.6"/>
	<rect x="1125.6" y="147.5" class="st1" width="14.3" height="3.7"/>
	<rect x="977.1" y="170.1" class="st1" width="16.3" height="13.1"/>
	<rect x="1007.3" y="131.2" class="st1" width="13.7" height="13.5"/>
	<rect x="977.4" y="116.5" class="st1" width="16.3" height="14.1"/>
	<rect x="977.4" y="131.8" class="st1" width="16.3" height="12.9"/>
	<rect x="977.1" y="155" class="st1" width="16.3" height="13.9"/>
	<rect x="914.7" y="122.8" class="st1" width="8.7" height="8.4"/>
	<rect x="1166.7" y="123.8" class="st1" width="9.3" height="8.3"/>
	<rect x="1166.7" y="109" class="st1" width="9.3" height="8.4"/>
	<rect x="1166.7" y="94.4" class="st1" width="9.3" height="8.4"/>
	<rect x="1166.7" y="138.4" class="st1" width="9.3" height="8.3"/>
	<rect x="1166.7" y="153" class="st1" width="9.3" height="8.4"/>
	<rect x="1392.2" y="245" class="st1" width="12.8" height="15.6"/>
	<rect x="1392.2" y="223" class="st1" width="12.8" height="15.5"/>
	<rect x="1392.2" y="200.9" class="st1" width="12.8" height="15.5"/>
	<rect x="1166.7" y="167.7" class="st1" width="9.3" height="8.3"/>
	<rect x="1166.7" y="79.8" class="st1" width="9.3" height="8.4"/>
	<rect x="1166.7" y="65.1" class="st1" width="9.3" height="8.4"/>
	<rect x="1166.7" y="226.3" class="st1" width="9.3" height="8.4"/>
	<rect x="1146.8" y="65.1" class="st1" width="9.2" height="8.4"/>
	<rect x="1146.8" y="79.8" class="st1" width="9.2" height="8.4"/>
	<rect x="1146.8" y="94.4" class="st1" width="9.2" height="8.4"/>
	<rect x="1146.8" y="109" class="st1" width="9.2" height="8.4"/>
	<path class="st1" d="M1369.3,267.2v-45.8c0-6.9-5.7-12.6-12.6-12.6h-5.6c-6.9,0-12.6,5.7-12.6,12.6v45.8c8.3,0,16.6,0,25,0
		C1365.4,267.2,1367.3,267.2,1369.3,267.2z"/>
	<rect x="1166.7" y="241" class="st1" width="9.3" height="8.3"/>
	<rect x="1166.7" y="211.6" class="st1" width="9.3" height="8.4"/>
	<rect x="1166.7" y="197" class="st1" width="9.3" height="8.4"/>
	<rect x="1166.7" y="255.6" class="st1" width="9.3" height="8.4"/>
	<rect x="1146.8" y="123.8" class="st1" width="9.2" height="8.3"/>
	<rect x="1166.7" y="182.3" class="st1" width="9.3" height="8.4"/>
	<rect x="1392.2" y="178.8" class="st1" width="12.8" height="15.5"/>
	<rect x="1392.2" y="156.7" class="st1" width="12.8" height="15.5"/>
	<rect x="1462.1" y="245" class="st1" width="12.4" height="15.6"/>
	<rect x="1462.1" y="223" class="st1" width="12.4" height="15.5"/>
	<rect x="1438.1" y="134.6" class="st1" width="14.9" height="15.5"/>
	<rect x="1438.1" y="178.8" class="st1" width="14.9" height="15.5"/>
	<rect x="1438.1" y="156.7" class="st1" width="14.9" height="15.5"/>
	<path class="st1" d="M728.2,211.6c-6.7-0.1-12.1,5.4-12.1,12v43.6c9.8,0,19.5,0,29.3,0v-43.7c0-3.3-1.3-6.3-3.5-8.4
		c-2.2-2.1-5.1-3.5-8.4-3.5H728.2z"/>
	<rect x="666.7" y="189.7" class="st1" width="12.3" height="12.5"/>
	<rect x="1462.1" y="134.6" class="st1" width="12.4" height="15.5"/>
	<rect x="1462.1" y="178.8" class="st1" width="12.4" height="15.5"/>
	<rect x="1462.1" y="156.7" class="st1" width="12.4" height="15.5"/>
	<rect x="1462.1" y="200.9" class="st1" width="12.4" height="15.5"/>
	<rect x="1414.1" y="223" class="st1" width="14.8" height="15.5"/>
	<rect x="1414.1" y="200.9" class="st1" width="14.8" height="15.5"/>
	<rect x="1438.1" y="200.9" class="st1" width="14.9" height="15.5"/>
	<rect x="1392.2" y="134.6" class="st1" width="12.8" height="15.5"/>
	<rect x="1414.1" y="245" class="st1" width="14.8" height="15.6"/>
	<rect x="1414.1" y="178.8" class="st1" width="14.8" height="15.5"/>
	<rect x="1438.1" y="245" class="st1" width="14.9" height="15.6"/>
	<rect x="1414.1" y="156.7" class="st1" width="14.8" height="15.5"/>
	<rect x="1438.1" y="223" class="st1" width="14.9" height="15.5"/>
	<rect x="1414.1" y="134.6" class="st1" width="14.8" height="15.5"/>
	<rect x="1289.9" y="232" class="st1" width="16.4" height="12"/>
	<rect x="1240.2" y="178.8" class="st1" width="14.8" height="15.5"/>
	<rect x="1240.2" y="200.9" class="st1" width="14.8" height="15.5"/>
	<rect x="1264.2" y="156.7" class="st1" width="12.3" height="15.5"/>
	<rect x="1216.2" y="134.6" class="st1" width="14.8" height="15.5"/>
	<rect x="1240.2" y="156.7" class="st1" width="14.8" height="15.5"/>
	<rect x="1264.2" y="200.9" class="st1" width="12.3" height="15.5"/>
	<rect x="1240.2" y="134.6" class="st1" width="14.8" height="15.5"/>
	<rect x="1264.2" y="178.8" class="st1" width="12.3" height="15.5"/>
	<rect x="1216.2" y="156.7" class="st1" width="14.8" height="15.5"/>
	<rect x="1264.2" y="223" class="st1" width="12.3" height="15.5"/>
	<rect x="1264.2" y="245" class="st1" width="12.3" height="15.6"/>
	<rect x="1240.2" y="245" class="st1" width="14.8" height="15.6"/>
	<rect x="1146.8" y="138.4" class="st1" width="9.2" height="8.3"/>
	<rect x="1194.2" y="200.9" class="st1" width="12.8" height="15.5"/>
	<rect x="933.9" y="137.4" class="st1" width="9.3" height="8.4"/>
	<rect x="1194.2" y="156.7" class="st1" width="12.8" height="15.5"/>
	<rect x="1216.2" y="178.8" class="st1" width="14.8" height="15.5"/>
	<rect x="1194.2" y="223" class="st1" width="12.8" height="15.5"/>
	<rect x="1216.2" y="223" class="st1" width="14.8" height="15.5"/>
	<rect x="1216.2" y="200.9" class="st1" width="14.8" height="15.5"/>
	<rect x="1216.2" y="245" class="st1" width="14.8" height="15.6"/>
	<rect x="1194.2" y="134.6" class="st1" width="12.8" height="15.5"/>
	<rect x="1194.2" y="178.8" class="st1" width="12.8" height="15.5"/>
	<rect x="1368.7" y="169.3" class="st1" width="13.4" height="13.1"/>
	<rect x="1368.7" y="185.9" class="st1" width="13.4" height="13.1"/>
	<rect x="1352.1" y="169.3" class="st1" width="14" height="13.1"/>
	<rect x="1352.1" y="185.9" class="st1" width="14" height="13.1"/>
	<rect x="1335.5" y="169.3" class="st1" width="14" height="13.1"/>
	<rect x="1146.8" y="182.3" class="st1" width="9.2" height="8.4"/>
	<rect x="1146.8" y="197" class="st1" width="9.2" height="8.4"/>
	<rect x="1146.8" y="153" class="st1" width="9.2" height="8.4"/>
	<rect x="1146.8" y="167.7" class="st1" width="9.2" height="8.3"/>
	<rect x="1335.5" y="185.9" class="st1" width="14" height="13.1"/>
	<rect x="1194.2" y="245" class="st1" width="12.8" height="15.6"/>
	<rect x="1302.3" y="169.3" class="st1" width="14" height="13.1"/>
	<rect x="1318.9" y="169.3" class="st1" width="14" height="13.1"/>
	<rect x="1289.9" y="217.4" class="st1" width="16.4" height="12.9"/>
	<rect x="1286.8" y="185.9" class="st1" width="12.9" height="13.1"/>
	<rect x="1286.8" y="169.3" class="st1" width="12.9" height="13.1"/>
	<rect x="1302.3" y="185.9" class="st1" width="14" height="13.1"/>
	<rect x="666.7" y="173.9" class="st1" width="12.3" height="12.5"/>
	<rect x="1318.9" y="185.9" class="st1" width="14" height="13.1"/>
	<rect x="1264.2" y="134.6" class="st1" width="12.3" height="15.5"/>
	<rect x="1307.8" y="217.4" class="st1" width="16.4" height="12.9"/>
	<rect x="1307.8" y="232" class="st1" width="16.4" height="12"/>
	<rect x="1240.2" y="223" class="st1" width="14.8" height="15.5"/>
	<rect x="1077.5" y="240.4" class="st1" width="7.4" height="6.3"/>
	<rect x="914.7" y="196" class="st1" width="8.7" height="8.3"/>
	<rect x="1077.5" y="232.7" class="st1" width="7.4" height="5.9"/>
	<rect x="1077.5" y="225.9" class="st1" width="7.4" height="6.3"/>
	<rect x="914.7" y="225.4" class="st1" width="8.7" height="8.4"/>
	<rect x="1077.5" y="247.3" class="st1" width="7.4" height="5.9"/>
	<rect x="914.7" y="210.7" class="st1" width="8.7" height="8.4"/>
	<rect x="914.7" y="181.4" class="st1" width="8.7" height="8.4"/>
	<rect x="1085.4" y="247.3" class="st1" width="7.4" height="5.9"/>
	<rect x="1085.4" y="225.9" class="st1" width="7.4" height="6.3"/>
	<rect x="914.7" y="166.7" class="st1" width="8.7" height="8.4"/>
	<rect x="1085.4" y="232.7" class="st1" width="7.4" height="5.9"/>
	<rect x="1068.2" y="225.9" class="st1" width="7.4" height="6.3"/>
	<rect x="1085.4" y="240.4" class="st1" width="7.4" height="6.3"/>
	<rect x="1010.1" y="220.9" class="st1" width="35.5" height="44.6"/>
	<rect x="1060.3" y="247.3" class="st1" width="7.4" height="5.9"/>
	<rect x="1060.3" y="240.4" class="st1" width="7.4" height="6.3"/>
	<rect x="914.7" y="254.6" class="st1" width="8.7" height="8.4"/>
	<rect x="933.9" y="78.8" class="st1" width="9.3" height="8.4"/>
	<rect x="933.9" y="93.4" class="st1" width="9.3" height="8.4"/>
	<rect x="775.9" y="230.3" class="st1" width="20.6" height="25.2"/>
	<rect x="933.9" y="108.1" class="st1" width="9.3" height="8.4"/>
	<rect x="1060.3" y="232.7" class="st1" width="7.4" height="5.9"/>
	<rect x="914.7" y="240" class="st1" width="8.7" height="8.4"/>
	<rect x="1068.2" y="240.4" class="st1" width="7.4" height="6.3"/>
	<rect x="1068.2" y="232.7" class="st1" width="7.4" height="5.9"/>
	<rect x="1068.2" y="247.3" class="st1" width="7.4" height="5.9"/>
	<rect x="1060.3" y="225.9" class="st1" width="7.4" height="6.3"/>
	<rect x="933.9" y="64.1" class="st1" width="9.3" height="8.4"/>
	<rect x="914.7" y="78.8" class="st1" width="8.7" height="8.4"/>
	<rect x="849.8" y="123.4" class="st1" width="24" height="25.2"/>
	<rect x="849.8" y="159" class="st1" width="24" height="25.2"/>
	<rect x="914.7" y="64.1" class="st1" width="8.7" height="8.4"/>
	<rect x="914.7" y="152.1" class="st1" width="8.7" height="8.4"/>
	<rect x="849.8" y="87.8" class="st1" width="24" height="25.2"/>
	<rect x="988" y="225.9" class="st1" width="7.4" height="6.3"/>
	<rect x="849.8" y="230.3" class="st1" width="24" height="25.2"/>
	<rect x="811.2" y="194.7" class="st1" width="23.9" height="25.2"/>
	<rect x="888.5" y="159" class="st1" width="20" height="25.2"/>
	<rect x="849.8" y="194.7" class="st1" width="24" height="25.2"/>
	<rect x="888.5" y="123.4" class="st1" width="20" height="25.2"/>
	<rect x="888.5" y="230.3" class="st1" width="20" height="25.2"/>
	<rect x="888.5" y="52.2" class="st1" width="20" height="25.2"/>
	<rect x="888.5" y="87.8" class="st1" width="20" height="25.2"/>
	<rect x="849.8" y="52.2" class="st1" width="24" height="25.2"/>
	<rect x="811.2" y="52.2" class="st1" width="23.9" height="25.2"/>
	<rect x="775.9" y="194.7" class="st1" width="20.6" height="25.2"/>
	<rect x="775.9" y="159" class="st1" width="20.6" height="25.2"/>
	<rect x="669.6" y="233.8" class="st1" width="15.7" height="11.4"/>
	<rect x="775.9" y="52.2" class="st1" width="20.6" height="25.2"/>
	<rect x="775.9" y="123.4" class="st1" width="20.6" height="25.2"/>
	<rect x="775.9" y="87.8" class="st1" width="20.6" height="25.2"/>
	<rect x="811.2" y="87.8" class="st1" width="23.9" height="25.2"/>
	<rect x="914.7" y="108.1" class="st1" width="8.7" height="8.4"/>
	<rect x="811.2" y="159" class="st1" width="23.9" height="25.2"/>
	<rect x="811.2" y="230.3" class="st1" width="23.9" height="25.2"/>
	<rect x="914.7" y="93.4" class="st1" width="8.7" height="8.4"/>
	<rect x="914.7" y="137.4" class="st1" width="8.7" height="8.4"/>
	<rect x="811.2" y="123.4" class="st1" width="23.9" height="25.2"/>
	<rect x="686.7" y="233.8" class="st1" width="15.7" height="11.4"/>
	<rect x="681.5" y="173.9" class="st1" width="13.4" height="12.5"/>
	<rect x="888.5" y="194.7" class="st1" width="20" height="25.2"/>
	<rect x="988" y="247.3" class="st1" width="7.4" height="5.9"/>
	<rect x="686.7" y="219.8" class="st1" width="15.7" height="12.3"/>
	<rect x="681.5" y="189.7" class="st1" width="13.4" height="12.5"/>
	<rect x="697.3" y="189.7" class="st1" width="13.3" height="12.5"/>
	<rect x="933.9" y="122.8" class="st1" width="9.3" height="8.4"/>
	<rect x="980.2" y="240.4" class="st1" width="7.4" height="6.3"/>
	<rect x="980.2" y="232.7" class="st1" width="7.4" height="5.9"/>
	<rect x="729" y="173.9" class="st1" width="13.4" height="12.5"/>
	<rect x="697.3" y="173.9" class="st1" width="13.3" height="12.5"/>
	<rect x="744.9" y="173.9" class="st1" width="12.8" height="12.5"/>
	<rect x="729" y="189.7" class="st1" width="13.4" height="12.5"/>
	<rect x="669.6" y="219.8" class="st1" width="15.7" height="12.3"/>
	<rect x="744.9" y="189.7" class="st1" width="12.8" height="12.5"/>
	<rect x="980.2" y="225.9" class="st1" width="7.4" height="6.3"/>
	<rect x="713.1" y="189.7" class="st1" width="13.4" height="12.5"/>
	<rect x="713.1" y="173.9" class="st1" width="13.4" height="12.5"/>
	<rect x="963" y="240.4" class="st1" width="7.4" height="6.3"/>
	<rect x="963" y="225.9" class="st1" width="7.4" height="6.3"/>
	<rect x="980.2" y="247.3" class="st1" width="7.4" height="5.9"/>
	<rect x="963" y="232.7" class="st1" width="7.4" height="5.9"/>
	<rect x="970.9" y="225.9" class="st1" width="7.4" height="6.3"/>
	<rect x="970.9" y="232.7" class="st1" width="7.4" height="5.9"/>
	<rect x="970.9" y="247.3" class="st1" width="7.4" height="5.9"/>
	<rect x="970.9" y="240.4" class="st1" width="7.4" height="6.3"/>
	<rect x="988" y="232.7" class="st1" width="7.4" height="5.9"/>
	<rect x="963" y="247.3" class="st1" width="7.4" height="5.9"/>
	<rect x="988" y="240.4" class="st1" width="7.4" height="6.3"/>
	<path class="st2" d="M7.6,370.6c39.7,0,79.5,0,119.2,0c328.7-0.3,657.1-0.3,985.6-0.3c2.3,0,4.6,0,7.4,0c0-24.9,0-49.2,0-73.8h-0.1
		v-5.7h-1.9c-5.7,0-10.5-3.8-12.1-9c-0.4-1.2-0.6-2.5-0.6-3.9v-10.2c-4.4-3.4-7.8-8-9.5-13.1h0c0-0.1-0.1-0.2-0.1-0.3h9.6v-4.9
		c-4.4-3.4-7.8-8-9.5-13.1h0c0-0.1-0.1-0.2-0.1-0.3h9.6v-4.9c-4.4-3.4-7.8-8-9.5-13.1h0c0-0.1-0.1-0.2-0.1-0.3h9.6v-3.5
		c0-2.6,0.8-5,2.1-7V188H949v79.3c-0.6,0-1.1,0-1.7,0V159V59.3h-32.6V42.9H811.2h-14.7h-26.8v79.6v1v143.8c-3.2,0-6.5,0-9.7,0v-97.9
		v-0.3h-95.6v98.2c-135.3,0-270.6,0-405.9,0c-1.2,0-2.3-0.1-3.5,0c-1.6,0.2-2.7-0.1-3.4-0.9c-0.5-0.5-0.7-1.3-0.8-2.4
		c0-0.2,0-0.4,0-0.6c0.2-10.7,0.1-21.4,0.1-32.2c0.6-0.1,1.2-0.1,1.8-0.2c1.1,3.2,2.2,6.4,3.4,9.9c1.1-0.8,1.8-1.4,2.6-2.1
		c0.6,1.2,1.1,2.4,1.7,3.6c0.4-1,0.8-1.8,1.4-3.3c0.9,2.3,1.5,3.9,2.2,5.7c0.7-0.8,1.1-1.3,1.7-2c0.8,2.6,1.5,5.1,1.9,6.5
		c0.7,0,1.3-0.1,1.9-0.1c0.3,0,0.5,0,0.8,0c0.2,0,0.4,0,0.7,0c0.1-0.4,0.1-0.8,0.2-1.1c0-0.7,0-1.3-0.1-2c-0.1-0.4-0.1-0.8-0.2-1.3
		c-0.1-0.3-0.1-0.6-0.2-1c-0.1-0.4-0.2-0.8-0.2-1.1c-0.1-0.6-0.2-1.2-0.3-1.8c0-0.4,0-0.7,0-1.1c0,0,0,0,0-0.1c0-0.2,0-0.5,0.1-0.7
		c0-0.1,0-0.1,0-0.2c0-0.2,0.1-0.4,0.1-0.6c0-0.1,0-0.2,0.1-0.3c0.1-0.2,0.1-0.5,0.2-0.7c0-0.1,0-0.1,0.1-0.2
		c0.1-0.3,0.2-0.5,0.4-0.8c0,0,0-0.1,0.1-0.1c0.2-0.3,0.4-0.6,0.6-1c1.2,2.8,2.1,4.8,3.1,7.1c1-1.6,1.8-2.8,3-4.5
		c0.9,2.3,1.5,3.7,1.9,4.7c1.6-0.5,2.9-0.8,4.2-1.2c-0.4-1.4-0.9-2.8-1.6-5.4c3.5,3.1,6.1,5.3,8.6,7.6c0.3-0.3,0.5-0.6,0.8-0.9
		c-1.2-1.7-2.4-3.5-3.6-5.2c0.3-0.3,0.6-0.6,0.9-0.9c2.3,2,4.6,4,6.9,6c0.3-0.3,0.7-0.6,1-0.9c-0.8-1.3-1.3-3-2.4-3.9
		c-7-5.7-14.2-11.2-21.3-17c-4.3-3.5-8.4-7.3-13.3-11.7c8-3.7,7.9,5.3,12.5,5.6c0.3-0.9,0.7-1.8,1.2-3c0.7,0.3,1.3,0.4,1.5,0.7
		c1.3,1.7,2.5,3.5,3.7,5.3c3.6-3.4,4.1-3.1,9.4,5.8c0.4-1.6,0.8-2.9,1.5-5.6c1.9,7.1,6.7,7.7,12.8,7.1c-5.7-7-11.4-13.9-17.7-21.6
		c0-0.2,0.3-1.9,0.9-4.9c2,3,3.1,4.7,4.6,7c1.6-6.4,3.5,1.7,5.6-1.1c-0.9-1.3-1.8-2.9-2.9-4.2c-5.6-6.6-13.7-8.5-21.2-11.5
		c-1.7-0.6-3.2-1.5-5.3-2.5c2.1-2,3.3-3.2,4.3-4.1c2.4,1.7,4.6,3.2,6.8,4.7c0.3-1.1,0.5-1.8,0.9-3.4c1,2,1.6,3.3,2.5,5.1
		c0.6-1.4,0.9-2.2,1.3-3.2c2.6,1,5.3,1.9,9.3,3.4c-3.3-4.1-5.2-8.1-8.3-9.8c-4.1-2.2-9.4-2.1-13.9-3.8c-2.8-1-5-3.4-7.5-5.2
		c0.3-0.6,0.6-1.2,0.9-1.9c3.4,0.7,6.9,1.4,10.4,2.1c0-0.1,0.1-1.2,0.2-2.9c2.9,1.8,5.3,5.2,8.8,0c-3.4-1.9-6.4-4.2-9.8-5.3
		c-6.7-2.1-12.2-5.9-17.8-10.4c2.9-1.2,5.1-2.2,7.5-3.2c1,1.1,2.3,2.6,4,4.5c0.1-0.3,0.1-0.5,0.2-0.7c0.2-0.7,0.3-1.3,0.4-1.8
		c0-0.2,0.1-0.3,0.1-0.5c0-0.1,0.1-0.3,0.1-0.4c1.3,0.1,2.7,0.1,4.1,0.2c0.4,0,0.8,0,1.2,0.1c1.2,0.1,2.4,0.1,3.8,0.2
		c-6.7-4.4-13.3-7.2-17.7-12c-4.1-4.6-5.9-11.3-8.8-17.3c-1.1,7.5-4.4,14.2-10.4,19.4c-2.5,2.2-5.1,4.3-7.7,6.5c-1.2,1-2.4,2-3.6,3
		c1.2,0,2.3,0,3.5,0c0.5,0,1,0,1.5,0c-0.4,0.8-0.6,1.4-0.6,2c0,0.2,0.1,0.3,0.1,0.5c0.1,0.1,0.1,0.2,0.3,0.3c0,0,0.1,0,0.1,0.1
		c0.1,0.1,0.2,0.1,0.3,0.2c0.1,0,0.3,0,0.5,0c0.1,0,0.1,0,0.2,0c0.2,0,0.5-0.1,0.8-0.1c2.3-0.6,4.4-2.2,8-4c-1.3,3-1.7,5.1-2.9,6.6
		c-4.7,5.8-10.9,9.5-17.7,12.5c-2.1,0.9-3.7,3-5.7,4.7c7.6,3.8,12.4-2.1,18.8-3.1c-8.3,7.7-15.9,14.7-23.5,21.8
		c0.2,0.3,0.3,0.7,0.5,1c4.2-2.2,8.3-4.4,12.4-6.5c0.2,0.4,0.3,0.9,0.5,1.3c0.1,0.2,0.2,0.4,0.2,0.6c0,0,0,0,0.1,0
		c0.1,0.1,0.1,0.2,0.2,0.4c0.1-0.1,0.1-0.2,0.2-0.3c0.5,0.2,1,0.3,1.6,0.5c0.9,0.3,1.9,0.6,3,1c0.4,0.1,0.9,0.3,1.4,0.4
		c1.6-3.8,2.4-5.9,2.9-7.1c1.8-0.4,2.9-0.8,4-0.8c0.8,0,1.5,0.6,2.3,1l0.2-0.4l0.2,0.2l-0.4,0.2c-1.1,1.5-1.9,3.4-3.4,4.5
		c-2.7,2.1-5.7,3.7-8.6,5.5c0.9,0.3,1.9,0.6,2.8,0.8c0,0.5,0.1,0.9,0.1,1.4c-3.3,1.2-6.8,2.1-9.9,3.7c-2.2,1.2-4.4,2.5-6.6,3.9
		c-2.1,1.4-4.3,2.8-6.4,4.1c5.4-1.4,10.8-2.8,16.5-4.3c-0.2,5.1-2.7,7.3-5.8,8.5c-6,2.1-10.8-0.8-15.8-2.7c-2.7-1-5.4-2.3-8-3.5
		c0.2-0.6,0.3-1.3,0.5-1.9c2.7,0,5.4,0,8.1,0c1,0,2-0.2,3-0.2c-0.5-1.1-0.8-2.4-1.7-3.2c-0.9-0.8-2.4-1-3.6-1.6
		c-3.6-1.8-7.3-3.6-10.9-5.3c0.2-0.7,0.4-1.4,0.5-2.1c2,0.2,4,0.6,5.9,0.5c2.1-0.2,4.1-0.9,6.4-1.5c-7.9-4.4-16.2-8-16.7-18.9
		c-2.6,8.3-7.4,14.5-14.8,18.4c2.9,3.9,5.8,3.1,9,0.4c-0.5,4.5-4,6.7-6.8,9c-3,2.4-6.6,4-10,5.9c0.3,0.4,0.5,0.7,0.8,1.1
		c2.1,0.2,4.1,0.4,6.2,0.6c0.1,0.4,0.3,0.9,0.4,1.3c-3.5,3.3-7.1,6.7-11,10.4c1.9-0.2,4.2,0.1,4.8-0.7c3.1-4,6.4-2.8,9.9-1
		c0.1-0.4,0.1-0.9,0.2-1.3c0.1-0.7,0.2-1.3,0.3-2c0.1-0.7,0.2-1.4,0.3-2.1c1.3,0.5,2.4,0.8,4.2,1.5c0.3,0.1,0.5,0.2,0.8,0.3
		c-2.1,1.3-3.6,2.3-5.1,3.2c-0.2,0.1-0.4,0.3-0.6,0.4c-0.6,2.1-1.8,3.5-3.2,4.6c-0.9,0.7-2,1.2-3.1,1.7c-0.6,0.2-1.1,0.4-1.7,0.7
		c-1.1,0.4-2.3,0.8-3.4,1.3c-0.2,0.1-0.3,0.2-0.5,0.3c-0.4,0.4-0.7,0.9-1.1,1.4c2.6,0.1,5.1,0.3,7.7,0.4c0.1,0.4,0.2,0.9,0.3,1.3
		c-1.5,1.1-2.8,2.8-4.5,3.2c-3.9,0.8-6.9,2.6-9.3,5c-1.8,1.9-3.2,4.3-4.3,7.1c2.6-0.5,5.2-1,7.9-1.5c-0.1,1.2-0.3,3.1-0.5,5.6
		c1.9-0.4,3.5-0.5,4.8-1.1c2.5-1.1,4.9-2.5,7.3-3.8c0.1-0.1,0.3-0.2,0.4-0.2c-0.1,1-0.3,2-0.4,3.1c-0.1,0.4-0.1,0.8-0.2,1.3
		c-0.1,1.1-0.3,2.2-0.4,3.3c0,0.3-0.1,0.6-0.1,0.9c-0.1,0.5-0.1,0.9-0.2,1.4c-0.3,2-0.5,4-0.8,6.2c1.9-1.8,3.5-3.3,5-4.8
		c0.1,0.2,0.2,0.5,0.2,0.7c2-2.3,4.3-4.9,7.2-8.2c0.3,2.9,0.7,4.8,0.7,6.7c-0.1,3.6-0.9,7.3-0.8,10.9c0.2,3.8-1.2,4.8-4.9,4.7
		c-17-0.2-33.9-0.1-50.9-0.1c-1.2,0-2.5-0.3-4.1-0.5c-0.1,0-0.2,0-0.3,0c-0.1-1-0.1-2-0.2-3c-0.7-13-1.5-25.7-2.2-38.4
		c0.5,0,1-0.1,1.5-0.1c0.7,2,1.5,4,2.2,6c2.9-1.8,3.1-1.6,5.7,7.6c0.6-0.7,1-1.2,1.6-1.9c0.9,1.3,1.8,2.5,2.7,3.8
		c0.5-0.1,0.9-0.1,1.4-0.2c0.2-1.8,0.6-3.6,0.4-5.4c-0.1-1.2-0.3-2.3-0.4-3.5v-0.1c-0.5-3.5-1.1-6.9-1.6-10.4
		c2.2,1.7,4.3,3.4,6.5,5.2c-0.1-1-0.3-2.2-0.5-4.3c0.8,0.8,1.5,1.6,2.2,2.5c0.3,0.4,0.7,0.8,1,1.2c0.3,0.4,0.7,0.7,1.1,1.1
		c1.4,1.3,3.1,1.8,5.6,0.4c0-2.2,0-4.3,0-5.6c3.8,0.9,7.1,1.7,11.4,2.7c-2.9-4.3-4.5-8.4-7.5-10.8c-3.6-2.9-8.5-4.1-12.6-6.4
		c-1.8-1-3.1-2.9-4.6-4.4c0.3-0.5,0.5-1.1,0.8-1.6c4.6,0.8,9.2,1.6,13.7,2.4c-9.7-5.5-20.3-10.1-27.4-20.1c2.1-0.3,3.5-0.6,5.2-0.8
		c0.7,1.5,1.7,3.5,2.8,6c1.2-1.7,1.9-2.7,2-2.7c2.8,0.5,4.6,0.5,6.2,1.1c4.4,1.8,4.4,1.9,5.5,1c-0.4-0.3-0.8-0.6-1.1-1
		c-4.8-4.9-9.6-9.8-14.4-14.7c1.1,0.4,2,0.8,2.9,1.2c0.6,0.2,1.1,0.5,1.7,0.7c0.5,0.2,1,0.4,1.4,0.6c0.2,0.1,0.4,0.2,0.6,0.2h0.1
		c0.2,0.1,0.4,0.1,0.5,0.2c0,0,0,0,0.1,0c0.2,0.1,0.3,0.1,0.5,0.2h0.1c0.1,0,0.3,0.1,0.4,0.1h0.1c0.1,0,0.2,0.1,0.4,0.1
		s0.3,0.1,0.4,0.1c0.1,0,0.3,0.1,0.4,0.1c0.3,0.1,0.5,0.1,0.7,0.2c0.5,0.1,0.9,0.1,1.2,0.1c0.4,0,0.7-0.1,1.1-0.2
		c0.3-0.1,0.5-0.2,0.8-0.3c0.2-0.1,0.4-0.2,0.7-0.4c0.2-0.1,0.5-0.3,0.8-0.4c-2.4-1.7-4.5-3.2-6.5-4.7c-4.6-3.5-9.3-6.9-13.7-10.5
		c-1.1-0.9-1.4-2.8-2.1-4.2c6.2,3.6,6.2,3.6,10.8-1.4c-8.4-5.6-15.3-12.4-17.7-23.5c0.4,13.9-9.9,18.6-20,24.1
		c3.1,1.3,5.3,2.3,7.8,3.3c0.9-1.1,1.8-2.2,2.7-3.2c2,0.9,3.7,1.6,6.5,2.8c-4.6,2.8-8.3,5.2-12.2,7.3c-3.8,2-7.7,3.8-11.6,5.6
		c0.3,0.8,0.6,1.6,0.9,2.3c2-0.4,4-0.9,6-1.3c0.4,0.8,0.7,1.6,1.1,2.5c0.1-0.5,0.1-1,0.2-1.5c2.7-0.4,5.5-0.9,9.2-1.4
		c-3,5.2-8.7,9-15.2,9c-6.6,0-6.5,5.5-10.6,8.9c6.8-1.5,12.2-2.7,17.7-3.9c-0.1-0.5-0.2-0.9-0.3-1.4c1.3,0.5,2.7,1.1,4,1.6
		c0,0,0,0-0.1,0.1c-0.7,0.6-1.4,1.4-2.1,2.1c-0.1,0.1-0.3,0.2-0.4,0.4c-0.1,0-0.1,0.1-0.2,0.1c-0.3,0.3-0.6,0.5-0.9,0.7
		c-0.3,0.2-0.6,0.4-0.9,0.5c-4,1.9-8.4,3.2-12.4,5.2c-2,1-3.4,2.9-5.4,4.6c1.3,1.2,2.2,2,3.2,2.9c0.8-1.5,1.4-2.5,1.9-3.5
		c0.7,0.6,1.4,1.2,2.1,1.8c-1.6,2.3-3.2,4.7-5,7c-3.4,4.3-6.9,8.5-10.4,12.8c0.5,0.6,1.1,1.2,1.6,1.8c3.2-1.7,6.4-3.4,9.6-5.1
		c0.2,0.4,0.6,1.3,1.2,2.6c2.6-7.2,4.6-8.6,7.8-5.6c1.3-1.7,2.6-3.3,4-5.1c1,1.1,1.8,2,2.6,2.8c2.8-2,3.7-6.8,8.7-5.1
		c-2,2.6-3.3,5-5.2,6.7c-3.6,3.1-7.2,6.4-11.4,8.5c-5.1,2.6-7.7,5.4-7.3,10.7c-2,0.1-5.4-3.7-5.9,1.5c3.7,2.2,3.7,2.2,10.3-1.9
		c0.1,0.5,0.2,1,0.3,1.4c0.1,0.4,0.2,0.9,0.3,1.4c0.5-0.2,0.9-0.3,1.4-0.5c1.4-0.5,2.8-1,4.3-1.5c0.2,0.2,0.7,1,1.4,2.2
		c1.1-2.2,2-3.9,2.8-5.6c0.5,0.1,1,0.2,1.5,0.3c-0.3,2.7-0.5,5.4-1.1,8.1c-0.6,3.1-0.8,3,3.1,3.9c0.6-2.3,1.2-4.6,1.9-7.3
		c0.4,1.2,0.7,1.9,0.8,2.2c3.1-3.5,10.5-2.9,10-10.3c0.7,12.6,0.8,24.8,0.6,36.9c0,3.6-2.2,4.7-5.9,4.7c-9.1,0-18.1-0.1-27.2-0.1
		c-27.1,0-54.1,0-81.2,0c-0.1,0-0.3,0-0.4,0c0,34.3,0,68.7,0,103c0.1,0,0.3,0,0.4,0c0,0,0-0.1,0-0.1C2.6,370.6,5.1,370.6,7.6,370.6z
		 M1085.4,225.9h7.4v6.3h-7.4V225.9z M1085.4,232.7h7.4v5.9h-7.4V232.7z M1085.4,240.4h7.4v6.3h-7.4V240.4z M1085.4,247.3h7.4v5.9
		h-7.4V247.3z M1077.5,225.9h7.4v6.3h-7.4V225.9z M1077.5,232.7h7.4v5.9h-7.4V232.7z M1077.5,240.4h7.4v6.3h-7.4V240.4z
		 M1077.5,247.3h7.4v5.9h-7.4V247.3z M1068.2,225.9h7.4v6.3h-7.4V225.9z M1068.2,232.7h7.4v5.9h-7.4V232.7z M1068.2,240.4h7.4v6.3
		h-7.4V240.4z M1068.2,247.3h7.4v5.9h-7.4V247.3z M1060.3,225.9h7.4v6.3h-7.4V225.9z M1060.3,232.7h7.4v5.9h-7.4V232.7z
		 M1060.3,240.4h7.4v6.3h-7.4V240.4z M1060.3,247.3h7.4v5.9h-7.4V247.3z M1010.1,220.9h35.5v44.6h-35.5V220.9z M988,225.9h7.4v6.3
		H988V225.9z M988,232.7h7.4v5.9H988V232.7z M988,240.4h7.4v6.3H988V240.4z M988,247.3h7.4v5.9H988V247.3z M980.2,225.9h7.4v6.3
		h-7.4V225.9z M980.2,232.7h7.4v5.9h-7.4V232.7z M980.2,240.4h7.4v6.3h-7.4V240.4z M980.2,247.3h7.4v5.9h-7.4V247.3z M970.9,225.9
		h7.4v6.3h-7.4V225.9z M970.9,232.7h7.4v5.9h-7.4V232.7z M970.9,240.4h7.4v6.3h-7.4V240.4z M970.9,247.3h7.4v5.9h-7.4V247.3z
		 M963,225.9h7.4v6.3H963V225.9z M963,232.7h7.4v5.9H963V232.7z M963,240.4h7.4v6.3H963V240.4z M963,247.3h7.4v5.9H963V247.3z
		 M933.9,64.1h9.3v8.4h-9.3V64.1z M933.9,78.8h9.3v8.4h-9.3V78.8z M933.9,93.4h9.3v8.4h-9.3V93.4z M933.9,108.1h9.3v8.4h-9.3V108.1z
		 M933.9,122.8h9.3v8.4h-9.3V122.8z M933.9,137.4h9.3v8.4h-9.3V137.4z M933.9,152.1h9.3v8.4h-9.3V152.1z M933.9,166.7h9.3v8.4h-9.3
		V166.7z M933.9,181.4h9.3v8.4h-9.3V181.4z M933.9,196h9.3v8.3h-9.3V196z M933.9,210.7h9.3v8.4h-9.3V210.7z M933.9,225.4h9.3v8.4
		h-9.3V225.4z M933.9,240h9.3v8.4h-9.3V240z M933.9,254.6h9.3v8.4h-9.3V254.6z M914.7,64.1h8.7v8.4h-8.7V64.1z M914.7,78.8h8.7v8.4
		h-8.7V78.8z M914.7,93.4h8.7v8.4h-8.7V93.4z M914.7,108.1h8.7v8.4h-8.7V108.1z M914.7,122.8h8.7v8.4h-8.7V122.8z M914.7,137.4h8.7
		v8.4h-8.7V137.4z M914.7,152.1h8.7v8.4h-8.7V152.1z M914.7,166.7h8.7v8.4h-8.7V166.7z M914.7,181.4h8.7v8.4h-8.7V181.4z M914.7,196
		h8.7v8.3h-8.7V196z M914.7,210.7h8.7v8.4h-8.7V210.7z M914.7,225.4h8.7v8.4h-8.7V225.4z M914.7,240h8.7v8.4h-8.7V240z M914.7,254.6
		h8.7v8.4h-8.7V254.6z M888.5,52.2h20v25.2h-20V52.2z M888.5,87.8h20V113h-20V87.8z M888.5,123.4h20v25.2h-20V123.4z M888.5,159h20
		v25.2h-20V159z M888.5,194.7h20v25.2h-20V194.7z M888.5,230.3h20v25.2h-20V230.3z M849.8,52.2h24v25.2h-24V52.2z M849.8,87.8h24
		V113h-24V87.8z M849.8,123.4h24v25.2h-24V123.4z M849.8,159h24v25.2h-24V159z M849.8,194.7h24v25.2h-24V194.7z M849.8,230.3h24
		v25.2h-24V230.3z M811.2,52.2h23.9v25.2h-23.9V52.2z M811.2,87.8h23.9V113h-23.9V87.8z M811.2,123.4h23.9v25.2h-23.9V123.4z
		 M811.2,159h23.9v25.2h-23.9V159z M811.2,194.7h23.9v25.2h-23.9V194.7z M811.2,230.3h23.9v25.2h-23.9V230.3z M775.9,52.2h20.6v25.2
		h-20.6V52.2z M775.9,87.8h20.6V113h-20.6V87.8z M775.9,123.4h20.6v25.2h-20.6V123.4z M775.9,159h20.6v25.2h-20.6V159z M775.9,194.7
		h20.6v25.2h-20.6V194.7z M775.9,230.3h20.6v25.2h-20.6V230.3z M266.7,182c-0.2,0.4-0.3,0.7-0.5,1.1c-1-0.4-2-0.9-3-1.3
		c0.1-0.5,0.3-0.9,0.5-1.2C264.7,181.1,265.7,181.5,266.7,182z M173.8,204.2c0-0.2-0.1-0.5-0.1-0.7c0.7-0.1,1.4-0.2,2.2-0.2
		C175.2,203.6,174.5,203.9,173.8,204.2z M679,189.7v12.5h-12.3v-12.5H679z M666.7,186.4v-12.5H679v12.5H666.7z M685.3,245.2h-15.7
		v-11.4h15.7V245.2z M685.3,232.1h-15.7v-12.3h15.7V232.1z M694.9,189.7v12.5h-13.4v-12.5H694.9z M681.5,186.4v-12.5h13.4v12.5
		H681.5z M702.4,245.2h-15.7v-11.4h15.7V245.2z M702.4,232.1h-15.7v-12.3h15.7V232.1z M710.6,202.2h-13.3v-12.5h13.3V202.2z
		 M710.6,186.4h-13.3v-12.5h13.3V186.4z M726.5,189.7v12.5h-13.4v-12.5H726.5z M713.1,186.4v-12.5h13.4v12.5H713.1z M716,223.5
		c0-6.6,5.4-12,12-12h5.4v0c3.3,0,6.3,1.4,8.5,3.6c2.1,2.2,3.5,5.1,3.5,8.4v43.7c-9.8,0-19.5,0-29.3,0c0,0-0.1,0-0.1,0V223.5z
		 M742.4,186.4H729v-12.5h13.4V186.4z M742.4,189.7v12.5H729v-12.5H742.4z M757.7,202.2h-12.8v-12.5h12.8V202.2z M757.7,186.4h-12.8
		v-12.5h12.8V186.4z M199.6,212.8c0.2-0.1,0.4-0.3,0.5-0.4c0.2-0.2,0.5-0.4,0.7-0.5c0.2-0.1,0.4-0.3,0.6-0.3c0.1,0,0.2,0,0.2,0
		c1.9,0.7,3.7,1.7,6.3,3.1c0.4,0.2,0.8,0.4,1.2,0.6c-0.8,0.4-1.5,0.7-2,1c-0.4,0.2-0.7,0.4-0.9,0.5c-0.4,0.2-0.7,0.2-0.9,0.1
		c-1.6-0.7-3.1-1.7-4.6-2.7c-0.5-0.3-1-0.6-1.5-0.9C199.2,213.1,199.4,212.9,199.6,212.8z M196.8,210.5c0.1,0,0.1,0,0.2,0
		s0.1,0.1,0.2,0.1c0,0.1,0,0.3,0,0.3s-0.1,0-0.2,0.1c-0.1,0-0.1,0-0.2,0C196.8,210.9,196.8,210.7,196.8,210.5z M187.6,254.3
		c0.2-3,0.5-5.9,0.7-8.7c3.8,3.4,7.6,6.8,11.9,10.6c0-2.6,0-5.3,0-8.3c0,0,0-0.1,0-0.1c1.5,0.7,2.8,1.3,3.9,1.9c1.1,0.5,2,1,2.8,1.3
		c0.6-0.4,1.2-0.8,1.8-1.2c1.2-0.8,2.3-1.5,3.5-2.3c0.6-0.4,1.2-0.8,1.8-1.2c-2.4-3.6-6.3-5.7-10.1-8.1c-0.9-0.6-1.8-1.2-2.7-1.9
		c-0.7-0.5-1.3-1-1.9-1.6c-0.4-0.4-0.8-0.8-1.2-1.2c-1.3-1.5-2.4-3.2-3.2-5.3c6.4,3.2,12.2,6.1,18,8.9c0-0.1,0.1-0.2,0.1-0.3
		c0-0.1,0.1-0.2,0.1-0.2c2.6,1.2,5.2,2.4,7.8,3.5c-0.2-0.7-0.3-1.6-0.6-2.3c0,0,0,0,0-0.1c0-0.1-0.1-0.2-0.1-0.3v-0.1
		c0-0.1-0.1-0.2-0.1-0.3c0,0,0-0.1-0.1-0.1c-0.1-0.1-0.1-0.2-0.2-0.3c0,0,0-0.1-0.1-0.1c-0.3-0.3-0.5-0.6-0.7-0.8
		c-0.2-0.3-0.4-0.5-0.5-0.8c-0.1-0.3-0.2-0.5-0.3-0.7c-0.1-0.2-0.1-0.5-0.1-0.7c0-0.6,0.2-1.1,0.5-1.7c0.2-0.3,0.4-0.6,0.6-0.9
		c0.4-0.6,1-1.2,1.7-1.8c0.3,0.7,0.7,1.3,0.9,1.9c0.3,0.6,0.6,1.1,0.8,1.7c0.5-0.6,0.9-1.2,1.4-1.7s1-1.2,1.5-1.8
		c1-1.2,2.1-2.5,3.3-4c0.5,1.8,0.7,3.5,0.8,5.1c0.1,3.8-0.7,7.3-1.8,10.6c-0.2,0.5-0.3,0.9-0.5,1.4c-0.5,1.4-1,2.8-1.5,4.2
		c-0.3,0.9-0.7,1.8-1,2.8c0.6,0,1.2-0.1,1.8-0.1c0.6,0,1.2-0.1,1.9-0.1c0.5,0,1,0,1.6-0.1c0.1-0.2,0.2-0.5,0.3-0.8
		c0.3-0.8,0.7-1.7,1.1-2.8c0.3-0.7,0.5-1.4,0.8-2.1c0.1-0.4,0.3-0.7,0.4-1.1c0.1-0.4,0.3-0.7,0.4-1.1c0.3,0,0.5,0.1,0.8,0.1
		c-0.1,1.8-0.2,3.6-0.4,6.6c0.7-1.8,1.3-3.5,1.9-5c0.4-1,0.8-2,1.1-3c0.5-1.5,1.1-2.8,1.6-4.2c0.4,0.1,0.9,0.2,1.3,0.3
		c0.2,0.4,0.3,0.8,0.5,1.3c0.2,0.5,0.4,1,0.7,1.6c0.5-1.4,1-2.8,1.5-4.1c0.2-0.6,0.5-1.3,0.7-1.9c0.2-0.6,0.5-1.3,0.7-1.9
		c0.5,0,0.9,0.1,1.4,0.1c0,1.3,0,2.5,0,3.8c0,3.8,0.1,7.5-0.1,11.3c-0.2,5.8-0.8,11.6-0.9,17.4c0,0.2,0,0.3,0,0.5
		c0,0.5-0.1,0.9-0.2,1.3c-0.4,1.5-1.4,2-3.6,2c-8.2,0-16.3-0.1-24.5-0.1s-16.3,0-24.5,0c-0.4,0-0.7,0-1,0s-0.6-0.1-0.9-0.2
		c-0.8-0.2-1.5-0.6-1.9-1.2c-0.1-0.1-0.1-0.3-0.2-0.4c0,0,0,0,0,0c-0.1-0.3-0.2-0.7-0.2-1.2c0,0,0-0.1,0-0.1c0-0.2,0-0.5,0-0.7
		C187.1,260.3,187.3,257.3,187.6,254.3z M102.9,183.3c0.4-0.3,0.7-0.5,1.1-0.7c0.1,0.1,0.2,0.3,0.2,0.4
		C103.8,183,103.3,183.2,102.9,183.3z"/>
	<path class="st2" d="M175.9,253.5C175.9,253.5,175.9,253.5,175.9,253.5C176,253.7,176,253.6,175.9,253.5z"/>
	<path class="st2" d="M1128.1,279.7C1128.1,279.7,1128.1,279.7,1128.1,279.7c2.9-1.6,4.8-4.6,4.8-8.1c0-5.1-4.1-9.2-9.2-9.2
		c-5.1,0-9.2,4.1-9.2,9.2c0,3.5,1.9,6.5,4.8,8.1c0,0,0,0,0,0c1.3,0.7,2.8,1.1,4.4,1.1S1126.8,280.4,1128.1,279.7z"/>
	<path class="st2" d="M1112.5,202.8h-2.8V199h0.1h14.1v2.6h0.1h1.5V199h0.1h14.3v3.7h-5.1h-0.1c1.2,0.5,2.2,1.2,3.2,2h2v0.1v2.1v0
		c0.6,0.9,1.1,1.9,1.5,2.9v-64.3v-0.2h-32.9v0.2l-0.3,60.5c0,0,0.1-0.1,0.1-0.1C1109.5,204.5,1110.9,203.5,1112.5,202.8z
		 M1109.8,197v-3.7h14.2v3.7H1109.8z M1109.8,151.2v-3.7h14.2v3.7H1109.8z M1124,153.3v3.6v0.1h-14.2v-0.1v-3.6H1124z M1124,159v3.7
		h-14.2V159H1124z M1124,164.7v3.7h-14.2v-3.7H1124z M1124,170.4v3.7h-14.2v-3.7H1124z M1124,176.1v3.7h-14.2v-3.7H1124z
		 M1124,181.9v3.7h-14.2v-3.7H1124z M1124,187.6v3.7h-14.2v-3.7H1124z M1140,197L1140,197h-14.4v-3.7h14.3h0.1V197z M1140,191.3
		L1140,191.3h-14.4v-3.7h14.3h0.1V191.3z M1140,185.6L1140,185.6h-14.4v-3.7h14.3h0.1V185.6z M1140,179.8L1140,179.8h-14.4v-3.7
		h14.3h0.1V179.8z M1140,174.1L1140,174.1h-14.4v-3.7h14.3h0.1V174.1z M1140,168.4L1140,168.4h-14.4v-3.7h14.3h0.1V168.4z
		 M1140,162.7L1140,162.7h-14.4V159h14.3h0.1V162.7z M1140,157h-14.4v-0.1v-3.6h14.3h0.1V157z M1140,151.2L1140,151.2h-14.4v-3.7
		h14.3h0.1V151.2z"/>
	<path class="st2" d="M1107.3,186.6v-42.8v-41.9H949V159v27.6H1107.3z M1083.3,116.5h16.3V130h-16.3V116.5z M1083.3,131.2h16.3v13.5
		h-16.3V131.2z M1082.6,155h16.3v14.4h-16.3V155z M1082.6,170.5h16.3v12.7h-16.3V170.5z M1065.8,116.5h16.3V130h-16.3V116.5z
		 M1065.8,131.2h16.3v13.5h-16.3V131.2z M1065.2,155h16.3v14.4h-16.3V155z M1065.2,170.5h16.3v12.7h-16.3V170.5z M1037.7,116.5h14.6
		V130h-14.6V116.5z M1037.7,131.2h14.6v13.5h-14.6V131.2z M1022.2,116.5h14.3V130h-14.3V116.5z M1022.2,131.2h14.3v13.5h-14.3V131.2
		z M1007.3,116.5h13.7V130h-13.7V116.5z M1007.3,131.2h13.7v13.5h-13.7V131.2z M977.4,116.5h16.3v14.1h-16.3V116.5z M977.4,131.8
		h16.3v12.9h-16.3V131.8z M977.1,155h16.3v13.9h-16.3V155z M977.1,170.1h16.3v13.1h-16.3V170.1z M960,116.5h16.3v14.1H960V116.5z
		 M960,131.8h16.3v12.9H960V131.8z M959.6,155h16.3v13.9h-16.3V155z M959.6,170.1h16.3v13.1h-16.3V170.1z"/>
	<path class="st2" d="M1123.7,211.4c-5.1,0-9.2,4.1-9.2,9.1c0,5.1,4.1,9.2,9.2,9.2s9.2-4.1,9.2-9.2
		C1132.9,215.5,1128.8,211.4,1123.7,211.4z M1123.6,227.3c-3.7,0-6.7-3-6.7-6.7s3-6.7,6.7-6.7s6.7,3,6.7,6.7
		S1127.3,227.3,1123.6,227.3z"/>
	<path class="st2" d="M1123.7,236.9c-5.1,0-9.2,4.1-9.2,9.1c0,5.1,4.1,9.2,9.2,9.2s9.2-4.1,9.2-9.2
		C1132.9,241,1128.8,236.9,1123.7,236.9z"/>
	<circle class="st3" cx="1123.6" cy="220.6" r="6.7"/>
	<path class="st4" d="M1134.6,370.3c-2.1,0-4.2,0-6.9,0c0,0,0-0.1,0-0.1c0,0-0.1,0-0.1,0c0-27.1,0-53.4,0-79.8h1.9
		c7,0,12.6-5.6,12.6-12.6v-10.4c0.1,0,0.1-0.1,0.2-0.1c0,0,0.1,0,0.1,0c0,0,0.1,0,0.1,0c0,0,0.1,0,0.1-0.1v-0.1
		c1.4-1.1,2.8-2.4,4-3.8v0.2c0,0,0.1-0.1,0.1-0.1c0,0,0,0,0,0c2-2.3,3.5-4.9,4.6-7.6c0-0.1,0.1-0.1,0.1-0.2h-0.1h-0.1
		c0.2-0.3,0.3-0.7,0.4-1.1h-8.9h-0.5v-5.1c0,0,0.1-0.1,0.1-0.1c0.1-0.1,0.2-0.2,0.3-0.2v-0.3c1.4-1.1,2.8-2.4,4-3.8v0.3
		c0,0,0.1-0.1,0.1-0.1c1.1-1.3,2-2.6,2.9-4c0-0.1,0.1-0.1,0.1-0.2h-0.2h-0.1c1-1.4,1.6-3.1,2.2-4.7h-8.8h-0.5V236v-4.8
		c0.1-0.1,0.2-0.2,0.3-0.2v-0.4c1.4-1.1,2.8-2.4,4-3.8v0.4c0,0,0.1-0.1,0.1-0.1c0,0,0.1-0.1,0.1-0.1c0.1-0.1,0.2-0.3,0.3-0.4
		c0.1-0.1,0.1-0.1,0.2-0.2h-0.4c1.6-1.9,2.9-4,3.9-6.3h0.3c0,0,0-0.1,0-0.1c0.3-0.6,0.5-1.3,0.8-2h-0.1h-5h-4h-0.5v-3.5
		c0-1.5-0.3-3-0.8-4.3c-0.4-1-0.9-2-1.5-2.9c-0.6-0.8-1.3-1.6-2-2.2c-0.9-0.8-2-1.5-3.2-2c-1.6-0.7-3.3-1.1-5.1-1.1h-4.1h-1.6h-6.3
		c-1.8,0-3.6,0.4-5.1,1.1c-1.7,0.7-3.1,1.8-4.3,3.2c-0.3,0.4-0.7,0.8-1,1.2c-1.4,2-2.1,4.4-2.1,7v3.5h-9.6h0
		c1.7,5.2,5.1,9.7,9.5,13.1c0,0,0.1,0.1,0.1,0.1v5.1h-9.6h0c1.7,5.2,5.1,9.7,9.5,13.1c0,0,0.1,0.1,0.1,0.1v5.1h-9.6h0
		c1.7,5.2,5.1,9.7,9.5,13.1c0,0,0.1,0.1,0.1,0.1v10.4c0,1.3,0.2,2.5,0.5,3.6c1.5,5.2,6.3,9,12.1,9h1.9h0.1v6h0.1
		c0,24.5,0,48.9,0,73.8c-2.9,0-5.1,0-7.4,0c-328.6,0-657.1,0-985.7,0c-39.7,0-79.5,0-119.2,0c-2.5,0-5,0-7.5,0.1c0,0,0,0.1,0,0.1
		c0.1,2.6-0.2,5.3,0.4,7.8c4.7,18.3,20.2,29.2,38.4,29.2c480.3-0.2,960.5-0.1,1440.8-0.3c4.8,0,10.2-1.8,14.2-4.4
		c11.6-7.5,18.2-19.2,24.4-31.2c-2.2-0.4-4.4-1.1-6.6-1.1C1385.9,370.3,1260.2,370.3,1134.6,370.3z M1123.7,211.3
		c5.1,0,9.2,4.1,9.2,9.2c0,0,0,0,0,0c0,5.1-4.1,9.2-9.2,9.2s-9.2-4.1-9.2-9.2c0,0,0,0,0,0C1114.5,215.5,1118.6,211.3,1123.7,211.3z
		 M1123.7,236.8c5.1,0,9.2,4.1,9.2,9.2c0,0,0,0,0,0c0,5.1-4.1,9.2-9.2,9.2s-9.2-4.1-9.2-9.2c0,0,0,0,0,0
		C1114.5,241,1118.6,236.8,1123.7,236.8z M1119.3,279.7C1119.3,279.7,1119.3,279.7,1119.3,279.7c-2.9-1.6-4.8-4.6-4.8-8.1
		c0-5.1,4.1-9.2,9.2-9.2l0,0c5.1,0,9.2,4.1,9.2,9.2c0,3.5-1.9,6.5-4.8,8.1c0,0,0,0,0,0c-1.3,0.7-2.8,1.1-4.4,1.1l0,0
		C1122.1,280.8,1120.6,280.4,1119.3,279.7z"/>
	<path class="st2" d="M1142.6,60.3v157.5h0.3h3.7v-6.1h0.2h9.1v8.3v0.1h-4.8h-0.3c-1,2.3-2.3,4.4-3.9,6.3h0.4h8.6v8.3v0.1h-9.3v-7.6
		v-0.4c-1.2,1.4-2.6,2.7-4,3.8v0.4v5v0.1h9.1c0,0.1-0.1,0.1-0.1,0.2c-0.6,1.6-1.3,3.3-2.2,4.7h0.1h0.2h6.2v8.3v0.1h-9.3v-0.1v-4V245
		c-1.2,1.4-2.6,2.7-4,3.8v0.3v5.2h0.2h8.9c0,0.1,0,0.1-0.1,0.2c-0.1,0.4-0.3,0.8-0.4,1.1h0.1h0.1h4.5v8.4h-9.2h0h-0.1v-0.5v-0.2
		c-1.2,1.4-2.6,2.7-4,3.8v0.1v0.1c0,0-0.1,0-0.1,0c0,0-0.1,0-0.1,0c0,0-0.1,0-0.1,0c-0.1,0-0.1,0.1-0.2,0.1v10.4
		c0,7-5.6,12.6-12.6,12.6h-1.9c0,26.4,0,52.7,0,79.8c0,0,0.1,0,0.1,0c2.6,0,4.7,0,6.8,0c125.7,0,251.3,0,377,0
		c2.2,0,4.4,0.7,6.6,1.1c0.2-0.9,0.7-1.9,0.7-2.8c0-33.6,0-67.4-0.1-101.2c0,0,0,0,0,0c-2.2,0-4.3-0.1-6.5-0.1
		c-11.3,0-22.6,0-33.9,0V128.8h0h-64.2h0h-9.1h0h-16.6v138.5c0,0,0,0,0,0c-0.1,0-0.2,0-0.3,0c0,0,0,0,0,0c-1.2,0-2.4,0-3.6,0v-103h0
		h-100.1v103c0,0,0,0,0,0c-1.4,0-2.7,0-4.1,0V128.8h0h-64.2h0h-9.1h0h-16.6v138.5c0,0,0,0,0,0c-3.5,0-6.8,0-10.3,0c0,0-0.1,0-0.1,0
		v-207h-6.5h-6.1h-0.3H1142.6z M1462.1,150.1v-15.5h12.4v15.5v0.1L1462.1,150.1L1462.1,150.1z M1462.1,172.2v-15.5h12.4v15.5v0.1
		h-12.4V172.2z M1462.1,194.3v-15.5h12.4v15.5v0.1L1462.1,194.3L1462.1,194.3z M1462.1,216.4v-15.5h12.4v15.5v0.1L1462.1,216.4
		L1462.1,216.4z M1462.1,238.5V223h12.4v15.5v0.1h-12.4V238.5z M1462.1,260.6V245h12.4v15.6v0.1L1462.1,260.6L1462.1,260.6z
		 M1438.1,150.1v-15.5h14.9v15.5v0.1L1438.1,150.1L1438.1,150.1z M1438.1,172.2v-15.5h14.9v15.5v0.1h-14.9V172.2z M1438.1,194.3
		v-15.5h14.9v15.5v0.1L1438.1,194.3L1438.1,194.3z M1438.1,216.4v-15.5h14.9v15.5v0.1L1438.1,216.4L1438.1,216.4z M1438.1,238.5V223
		h14.9v15.5v0.1h-14.9V238.5z M1438.1,260.6V245h14.9v15.6v0.1L1438.1,260.6L1438.1,260.6z M1414.1,150.1v-15.5h14.8v15.5v0.1
		L1414.1,150.1L1414.1,150.1z M1414.1,172.2v-15.5h14.8v15.5v0.1h-14.8V172.2z M1414.1,194.3v-15.5h14.8v15.5v0.1L1414.1,194.3
		L1414.1,194.3z M1414.1,216.4v-15.5h14.8v15.5v0.1L1414.1,216.4L1414.1,216.4z M1414.1,238.5V223h14.8v15.5v0.1h-14.8V238.5z
		 M1414.1,260.6V245h14.8v15.6v0.1L1414.1,260.6L1414.1,260.6z M1392.2,150.1v-15.5h12.8v15.5v0.1L1392.2,150.1L1392.2,150.1z
		 M1392.2,172.2v-15.5h12.8v15.5v0.1h-12.8V172.2z M1392.2,194.3v-15.5h12.8v15.5v0.1L1392.2,194.3L1392.2,194.3z M1392.2,216.4
		v-15.5h12.8v15.5v0.1L1392.2,216.4L1392.2,216.4z M1392.2,238.5V223h12.8v15.5v0.1h-12.8V238.5z M1392.2,260.6V245h12.8v15.6v0.1
		L1392.2,260.6L1392.2,260.6z M1306.3,244h-16.4v-12h16.4V244z M1306.3,230.3L1306.3,230.3l-16.4,0v0v-12.9h16.4V230.3z M1307.8,244
		L1307.8,244l0-12h0h16.4v12H1307.8z M1324.2,230.3L1324.2,230.3l-16.4,0v-12.9h0h16.4V230.3z M1363.5,267.3c-8.3,0-16.6,0-25,0
		v-0.1v-45.8c0-6.9,5.7-12.6,12.6-12.6h5.6c6.9,0,12.6,5.7,12.6,12.6v45.8v0.1C1367.4,267.3,1365.5,267.3,1363.5,267.3z
		 M1368.7,169.3L1368.7,169.3l13.4,0v0v13.1h-13.4V169.3z M1368.7,185.9h13.4V199h-13.4V185.9z M1352.1,169.3h14v13.1h-14V169.3z
		 M1352.1,185.9h14V199h-14V185.9z M1335.5,169.3h14v13.1h-14V169.3z M1335.5,185.9h14V199h-14V185.9z M1318.9,169.3L1318.9,169.3
		l14,0v0v13.1h-14V169.3z M1318.9,185.9h14V199h-14V185.9z M1302.3,169.3h14v13.1h-14V169.3z M1302.3,185.9h14V199h-14V185.9z
		 M1286.8,169.3h12.9v13.1h-12.9V169.3z M1286.8,185.9h12.9V199h-12.9V185.9z M1264.2,150.1v-15.5h12.3v15.5v0.1L1264.2,150.1
		L1264.2,150.1z M1264.2,172.2v-15.5h12.3v15.5v0.1h-12.3V172.2z M1264.2,194.3v-15.5h12.3v15.5v0.1L1264.2,194.3L1264.2,194.3z
		 M1264.2,216.4v-15.5h12.3v15.5v0.1L1264.2,216.4L1264.2,216.4z M1264.2,238.5V223h12.3v15.5v0.1h-12.3V238.5z M1264.2,260.6V245
		h12.3v15.6v0.1L1264.2,260.6L1264.2,260.6z M1240.1,134.6L1240.1,134.6h14.9v15.5v0.1h-14.9V134.6z M1240.1,156.7L1240.1,156.7
		h14.9v15.5v0.1h-14.9V156.7z M1240.1,178.8L1240.1,178.8h14.9v15.5v0.1h-14.9V178.8z M1240.1,200.9L1240.1,200.9h14.9v15.5v0.1
		h-14.9V200.9z M1240.1,223L1240.1,223h14.9v15.5v0.1h-14.9V223z M1240.1,245L1240.1,245h14.9v15.6v0.1h-14.9V245z M1216.1,134.6
		L1216.1,134.6h14.9v15.5v0.1h-14.9V134.6z M1216.1,156.7L1216.1,156.7h14.9v15.5v0.1h-14.9V156.7z M1216.1,178.8L1216.1,178.8h14.9
		v15.5v0.1h-14.9V178.8z M1216.1,200.9L1216.1,200.9h14.9v15.5v0.1h-14.9V200.9z M1216.1,223L1216.1,223h14.9v15.5v0.1h-14.9V223z
		 M1216.1,245L1216.1,245h14.9v15.6v0.1h-14.9V245z M1194.2,150.1v-15.5h12.8v15.5v0.1L1194.2,150.1L1194.2,150.1z M1194.2,172.2
		v-15.5h12.8v15.5v0.1h-12.8V172.2z M1194.2,194.3v-15.5h12.8v15.5v0.1L1194.2,194.3L1194.2,194.3z M1194.2,216.4v-15.5h12.8v15.5
		v0.1L1194.2,216.4L1194.2,216.4z M1194.2,238.5V223h12.8v15.5v0.1h-12.8V238.5z M1194.2,260.6V245h12.8v15.6v0.1L1194.2,260.6
		L1194.2,260.6z M1156.1,205.4L1156.1,205.4h-9.3V197h9.2h0.1V205.4z M1156.1,190.7L1156.1,190.7h-9.3v-8.4h9.2h0.1V190.7z
		 M1156.1,176L1156.1,176h-9.3v-8.3v-0.1h9.3V176z M1156.1,161.4L1156.1,161.4h-9.3V153h9.2h0.1V161.4z M1156.1,146.7L1156.1,146.7
		h-9.3v-8.3v-0.1h9.3V146.7z M1156.1,132.1L1156.1,132.1h-9.3v-8.3h9.2h0.1V132.1z M1156.1,117.4L1156.1,117.4h-9.3V109h9.2h0.1
		V117.4z M1156.1,102.8L1156.1,102.8h-9.3v-8.4h9.2h0.1V102.8z M1156.1,88.2L1156.1,88.2h-9.3v-8.4h9.2h0.1V88.2z M1156.1,73.5
		L1156.1,73.5h-9.3v-8.4h9.2h0.1V73.5z M1176,264h-9.3v-8.4h9.3V264z M1176,249.3h-9.3V241h9.3V249.3z M1176,234.7h-9.3v-8.4h9.3
		V234.7z M1176,220h-9.3v-8.4h9.3V220z M1176,205.4h-9.3V197h9.3V205.4z M1176,190.7h-9.3v-8.4h9.3V190.7z M1176,167.7v8.3h-9.3
		v-8.3v-0.1L1176,167.7L1176,167.7z M1176,161.4h-9.3V153h9.3V161.4z M1176,138.4v8.3h-9.3v-8.3v-0.1L1176,138.4L1176,138.4z
		 M1176,132.1h-9.3v-8.3h9.3V132.1z M1176,117.4h-9.3V109h9.3V117.4z M1176,102.8h-9.3v-8.4h9.3V102.8z M1176,88.2h-9.3v-8.4h9.3
		V88.2z M1176,65.1v8.4h-9.3v-8.4H1176z"/>
	<polygon class="st2" points="1280.4,127.1 1260.8,93.6 1204,93.6 1190.4,127.1 1190.5,127.1 	"/>
	<polygon class="st2" points="1260.3,91.9 1260.4,91.9 1232.3,72.3 1204.2,91.9 1204.3,91.9 	"/>
	<rect x="1284.4" y="156" class="st2" width="100" height="7.5"/>
	<polygon class="st2" points="1384.5,110.3 1284.4,154.8 1384.5,154.8 	"/>
	<rect x="1393.7" y="123.2" class="st2" width="79.3" height="4.1"/>
	<rect x="1399.1" y="118" class="st2" width="68.6" height="4.1"/>
	<rect x="1404.6" y="112.9" class="st2" width="57.5" height="4.1"/>
	<polygon class="st2" points="1409.6,111.2 1457.5,111.2 1457.6,111.2 1457.6,91.2 1457.6,91 1457.6,79.2 1442.3,79.2 1442.2,79.2
		1409.6,79.2 	"/>
</g>
<g class="auto1">
	<g id="Shape_1_7_">
		<g>
			<path class="st4" d="M962.7,354.3c-0.7,0-1.2,0.6-1.2,1.2s0.6,1.2,1.2,1.2s1.2-0.6,1.2-1.2S963.4,354.3,962.7,354.3z
				 M962.7,357.8c-0.3,0-0.5,0.2-0.5,0.5s0.2,0.5,0.5,0.5s0.5-0.2,0.5-0.5S963,357.8,962.7,357.8z M964.1,359.4v4.3
				c1.3-0.2,2.4-0.7,3.4-1.4l-3-3C964.4,359.3,964.2,359.4,964.1,359.4z M966.5,357.3l3,3c0.7-1,1.2-2.2,1.4-3.4h-4.3
				C966.6,357,966.5,357.2,966.5,357.3z M966.5,353.7c0.1,0.1,0.1,0.2,0.2,0.4h4.3c-0.2-1.3-0.7-2.4-1.4-3.4L966.5,353.7z
				 M960.9,351.8c0.1-0.1,0.2-0.1,0.4-0.2v-4.3c-1.3,0.2-2.4,0.7-3.4,1.4L960.9,351.8z M962.7,341.9c-7.5,0-13.6,6.1-13.6,13.6
				s6.1,13.6,13.6,13.6s13.6-6.1,13.6-13.6S970.2,341.9,962.7,341.9z M962.7,365.2c-5.4,0-9.7-4.4-9.7-9.7c0-5.4,4.4-9.7,9.7-9.7
				c5.4,0,9.7,4.4,9.7,9.7C972.4,360.9,968.1,365.2,962.7,365.2z M962.7,353.2c0.3,0,0.5-0.2,0.5-0.5s-0.2-0.5-0.5-0.5
				s-0.5,0.2-0.5,0.5S962.4,353.2,962.7,353.2z M967.5,348.7c-1-0.7-2.1-1.2-3.4-1.4v4.3c0.1,0,0.3,0.1,0.4,0.2L967.5,348.7z
				 M959,353.7l-3-3c-0.7,1-1.2,2.2-1.4,3.4h4.3C958.8,354,958.9,353.9,959,353.7z M957.9,362.3c1,0.7,2.2,1.2,3.4,1.4v-4.3
				c-0.1,0-0.3-0.1-0.4-0.2L957.9,362.3z M958.8,356.9h-4.3c0.2,1.3,0.7,2.4,1.4,3.4l3-3C958.9,357.2,958.8,357,958.8,356.9z
				 M960.4,355.5c0-0.3-0.2-0.5-0.5-0.5s-0.5,0.2-0.5,0.5s0.2,0.5,0.5,0.5S960.4,355.8,960.4,355.5z M965,355.5
				c0,0.3,0.2,0.5,0.5,0.5s0.5-0.2,0.5-0.5s-0.2-0.5-0.5-0.5S965,355.2,965,355.5z M1068.1,354.3c-0.7,0-1.2,0.6-1.2,1.2
				s0.6,1.2,1.2,1.2c0.7,0,1.2-0.6,1.2-1.2S1068.8,354.3,1068.1,354.3z M1066.4,351.8c0.1-0.1,0.2-0.1,0.4-0.2v-4.3
				c-1.3,0.2-2.4,0.7-3.4,1.4L1066.4,351.8z M1068.1,357.8c-0.3,0-0.5,0.2-0.5,0.5s0.2,0.5,0.5,0.5s0.5-0.2,0.5-0.5
				C1068.7,358,1068.4,357.8,1068.1,357.8z M1069.5,359.4v4.3c1.3-0.2,2.4-0.7,3.4-1.4l-3-3C1069.8,359.3,1069.7,359.4,1069.5,359.4
				z M1072,356.9c0,0.1-0.1,0.3-0.2,0.4l3,3c0.7-1,1.2-2.2,1.4-3.4H1072L1072,356.9z M1091.8,339.7c-1.8-2.8-6.6-3.8-10.2-5
				c-25.1-6.1-33.5-4.1-37.7-4.7c-0.8-0.2-1.6-1-2.3-1.4c-1.5-0.9-3.1-1.8-4.6-2.7c-2.5-1.5-13.9-7.8-17-8.9
				c-6.8-2.5-17.5-4.5-43.3-2.4c-1-0.3-1.7-1.1-2.8-1.4s-2.1,0.3-2.9,0.5c0,0.8-0.1,1.5-0.2,2.2c-5,2.1-10.1,3.8-15.2,5.9
				c-2.1,0.9-4.3,1.8-6.4,2.7c-1.3,0.6-2.6,1.4-4.1,1.9c-1.6,0.5-3.4,0.3-5.2,0.7c-3.3,0.7-6.8,0.8-10.4,0.9
				c-0.4,0.7-1.1,1.4-1.3,2.3c0.6,0.2,0.8,0.6,0.8,1.5c-1.1,1.6-0.8,4-0.8,6.6c-2.3,1.2-2.7,5.6-2.1,9.1c-0.1,0.3-0.1,0.6-0.2,0.9
				c0.1,1,0.4,2,0.5,3.1c0.9,0.6,1.9,1.5,2.5,2.4c0.3,0.4,0.4,1.1,1,1.3c2.9,2.1,17.9,2.6,17.9,2.6h0.8c-0.1-0.7-0.2-1.5-0.2-2.3
				c0-7.8,6.3-14.1,14.1-14.1s14.1,6.3,14.1,14.1c0,1.3-0.2,3.4-0.5,4.6l78.4-0.1c-0.5-1.4-0.7-2.9-0.7-4.5
				c0-7.8,6.3-14.1,14.1-14.1s14.1,6.3,14.1,14.1c0,1.4-0.2,2.7-0.6,3.9h0.8c0,0,6.2-0.3,7.7-1s2.1-2.7,2.1-2.7l-0.4-4.2
				C1091.9,351.6,1093.8,342.7,1091.8,339.7z M966.6,329.4c-4.7-3.1-2.2-6.8-2.3-6.7c-0.1,0.1-0.1,0.1-0.2,0.2
				c0.1-0.1,0.1-0.2,0.2-0.2c1.2-1.1,8.1-5.9,32.6-5.9c0.8,4.3,1.5,9.9,2.3,14.2C989.3,330.7,969.9,330.8,966.6,329.4z M1029.7,331
				c-2.1,0-23.5,0-23.5,0s-3.5-9.1-4.7-14.2c0.1,0,4.4,0.2,4.4,0.2s8.4,1,13.7,2.7c4.1,1.4,12.3,6.9,12.5,7.2
				C1029.5,327,1028.9,329,1029.7,331z M1068.1,341.9c-7.5,0-13.6,6.1-13.6,13.6s6.1,13.6,13.6,13.6s13.6-6.1,13.6-13.6
				S1075.7,341.9,1068.1,341.9z M1068.1,365.2c-5.4,0-9.7-4.4-9.7-9.7c0-5.4,4.4-9.7,9.7-9.7c5.4,0,9.7,4.4,9.7,9.7
				C1077.9,360.9,1073.5,365.2,1068.1,365.2z M1064.4,353.7l-3-3c-0.7,1-1.2,2.2-1.4,3.4h4.3C1064.3,354,1064.3,353.9,1064.4,353.7z
				 M1065.8,355.5c0-0.3-0.2-0.5-0.5-0.5s-0.5,0.2-0.5,0.5s0.2,0.5,0.5,0.5C1065.6,356,1065.8,355.8,1065.8,355.5z M1068.1,353.2
				c0.3,0,0.5-0.2,0.5-0.5s-0.2-0.5-0.5-0.5s-0.5,0.2-0.5,0.5S1067.8,353.2,1068.1,353.2z M1072.9,348.7c-1-0.7-2.1-1.2-3.4-1.4v4.3
				c0.1,0,0.3,0.1,0.4,0.2L1072.9,348.7z M1070.4,355.5c0,0.3,0.2,0.5,0.5,0.5s0.5-0.2,0.5-0.5s-0.2-0.5-0.5-0.5
				C1070.7,355,1070.4,355.2,1070.4,355.5z M1063.3,362.3c1,0.7,2.2,1.2,3.4,1.4v-4.3c-0.1,0-0.3-0.1-0.4-0.2L1063.3,362.3z
				 M1064.2,356.9h-4.3c0.2,1.3,0.7,2.4,1.4,3.4l3-3C1064.3,357.2,1064.3,357,1064.2,356.9z M1072,354.1h4.3
				c-0.2-1.3-0.7-2.4-1.4-3.4l-3,3C1072,353.9,1072,354,1072,354.1z"/>
		</g>
	</g>
</g>
<g class="auto2">
	<g id="Shape_1_6_">
		<g>
			<path class="st4" d="M688,351.6c-0.8,0-1.5,0.7-1.5,1.5s0.7,1.5,1.5,1.5s1.5-0.7,1.5-1.5C689.5,352.3,688.8,351.6,688,351.6z
				 M688,355.9c-0.4,0-0.6,0.3-0.6,0.6c0,0.4,0.3,0.6,0.6,0.6c0.4,0,0.6-0.3,0.6-0.6C688.6,356.1,688.3,355.9,688,355.9z
				 M692.5,355.2l3.6,3.6c0.8-1.2,1.4-2.6,1.7-4.1h-5.1C692.6,354.9,692.5,355.1,692.5,355.2z M689.6,357.8v5.1
				c1.5-0.3,2.9-0.8,4.1-1.7l-3.6-3.6C689.9,357.7,689.8,357.7,689.6,357.8z M692.5,351c0.1,0.1,0.1,0.3,0.2,0.5h5.1
				c-0.3-1.5-0.8-2.9-1.7-4.1L692.5,351z M685.8,348.6c0.1-0.1,0.3-0.1,0.5-0.2v-5.1c-1.5,0.3-2.9,0.8-4.1,1.7L685.8,348.6z
				 M682.2,361.2c1.2,0.8,2.6,1.4,4.1,1.7v-5.1c-0.2-0.1-0.3-0.1-0.5-0.2L682.2,361.2z M690.7,353.1c0,0.4,0.3,0.6,0.6,0.6
				s0.6-0.3,0.6-0.6c0-0.4-0.3-0.6-0.6-0.6S690.7,352.8,690.7,353.1z M685.2,353.1c0-0.4-0.3-0.6-0.6-0.6c-0.4,0-0.6,0.3-0.6,0.6
				c0,0.4,0.3,0.6,0.6,0.6S685.2,353.5,685.2,353.1z M693.7,345c-1.2-0.8-2.6-1.4-4.1-1.7v5.1c0.2,0.1,0.3,0.1,0.5,0.2L693.7,345z
				 M688,350.4c0.4,0,0.6-0.3,0.6-0.6c0-0.4-0.3-0.6-0.6-0.6c-0.4,0-0.6,0.3-0.6,0.6C687.3,350.1,687.6,350.4,688,350.4z M688,336.8
				c-9,0-16.3,7.3-16.3,16.3s7.3,16.3,16.3,16.3s16.3-7.3,16.3-16.3C704.3,344.1,697,336.8,688,336.8z M688,364.8
				c-6.4,0-11.7-5.2-11.7-11.7c0-6.4,5.2-11.7,11.7-11.7s11.7,5.2,11.7,11.7C699.6,359.5,694.4,364.8,688,364.8z M683.3,354.8h-5.1
				c0.3,1.5,0.8,2.9,1.7,4.1l3.6-3.6C683.4,355.1,683.3,354.9,683.3,354.8z M683.4,351l-3.6-3.6c-0.8,1.2-1.4,2.6-1.7,4.1h5.1
				C683.3,351.3,683.4,351.1,683.4,351z M805.8,351.6c-0.8,0-1.5,0.7-1.5,1.5s0.7,1.5,1.5,1.5s1.5-0.7,1.5-1.5
				C807.3,352.3,806.6,351.6,805.8,351.6z M807.5,357.8v5.1c1.5-0.3,2.9-0.8,4.1-1.7l-3.6-3.6C807.8,357.7,807.7,357.7,807.5,357.8z
				 M811.6,345c-1.2-0.8-2.6-1.4-4.1-1.7v5.1c0.2,0.1,0.3,0.1,0.5,0.2L811.6,345z M810.3,355.2l3.6,3.6c0.8-1.2,1.4-2.6,1.7-4.1
				h-5.1C810.5,354.9,810.4,355.1,810.3,355.2z M837.1,343c-0.6-1.6-2.7-1-3.3-2c3.6-5.2-0.5-14.8-0.2-14.3
				c-1.4-2.1-4.4-3.2-6.8-4.3c-3.4-1.5-7-3.1-10.7-4.4c-2-0.7-3.9-0.9-5.9-1.6c-2.4-0.8-4.5-1.9-4.7-1.9c0.1,0.1,0.1,0.1,0.2,0.2
				c-0.2-0.1-0.2-0.2-0.2-0.2c-18.8-18.2-26.3-20.4-33.6-22.1c-0.2,0-9-0.5-9-0.5s-78,0-100.3,0c-1.3,0.3-2.7,1.2-3.7,1.8
				c-1.9,1.3-2.2,3.6-3,5.9c-1.8,4.9-6.5,17.6-6.5,42.1c0,0.6-1.8,0.1-2.1,0.7c-5.1,8.8,3.6,12.9,7.9,12.9c2.4,0,15.3,2,15.3,2h0.8
				c-0.3-1.3-0.5-2.7-0.5-4.1c0-9.5,7.7-17.2,17.2-17.2s17.2,7.7,17.2,17.2c0,1.4-0.2,2.8-0.5,4.1h84.7c-0.3-1.4-0.5-2.8-0.5-4.2
				c0-9.4,7.6-17,17-17s17,7.6,17,17c0,1.5-0.2,2.9-0.5,4.2h5c0,0,2.2-1.1,2.8-1.8c0.5-0.7,0.4-1.4,1.2-1.8c3.5-1.9,6.1-1.9,6.1-7.5
				C837.4,345.2,837.5,343.7,837.1,343z M785.9,311.4c-0.6,0.8-1.7,0.5-1.7,6.5c-8.6-0.1-25.5-0.3-25.5-0.3s-0.1-20.1-0.1-20.5l0,0
				l0,0c3.7-0.6,10.6-0.9,15.4,0.3c12.5,3.6,17.2,11.4,19.9,14.7C792.6,312.1,786.9,311.2,785.9,311.4z M803.7,348.6
				c0.1-0.1,0.3-0.1,0.5-0.2v-5.1c-1.5,0.3-2.9,0.8-4.1,1.7L803.7,348.6z M810.3,351c0.1,0.1,0.1,0.3,0.2,0.5h5.1
				c-0.3-1.5-0.8-2.9-1.7-4.1L810.3,351z M805.8,336.8c-9,0-16.3,7.3-16.3,16.3s7.3,16.3,16.3,16.3s16.3-7.3,16.3-16.3
				C822.2,344.1,814.8,336.8,805.8,336.8z M805.8,364.8c-6.4,0-11.7-5.2-11.7-11.7c0-6.4,5.2-11.7,11.7-11.7s11.7,5.2,11.7,11.7
				C817.5,359.5,812.3,364.8,805.8,364.8z M805.8,355.9c-0.4,0-0.6,0.3-0.6,0.6c0,0.4,0.3,0.6,0.6,0.6c0.4,0,0.6-0.3,0.6-0.6
				C806.5,356.1,806.2,355.9,805.8,355.9z M803.1,353.1c0-0.4-0.3-0.6-0.6-0.6c-0.4,0-0.6,0.3-0.6,0.6c0,0.4,0.3,0.6,0.6,0.6
				S803.1,353.5,803.1,353.1z M801.3,351l-3.6-3.6c-0.8,1.2-1.4,2.6-1.7,4.1h5.1C801.2,351.3,801.2,351.1,801.3,351z M808.6,353.1
				c0,0.4,0.3,0.6,0.6,0.6c0.4,0,0.6-0.3,0.6-0.6c0-0.4-0.3-0.6-0.6-0.6C808.9,352.5,808.6,352.8,808.6,353.1z M805.8,350.4
				c0.4,0,0.6-0.3,0.6-0.6c0-0.4-0.3-0.6-0.6-0.6c-0.4,0-0.6,0.3-0.6,0.6S805.5,350.4,805.8,350.4z M800.1,361.2
				c1.2,0.8,2.6,1.4,4.1,1.7v-5.1c-0.2-0.1-0.3-0.1-0.5-0.2L800.1,361.2z M801.1,354.8H796c0.3,1.5,0.8,2.9,1.7,4.1l3.6-3.6
				C801.2,355.1,801.2,354.9,801.1,354.8z"/>
		</g>
	</g>
</g>
<g class="auto3">
	<g id="Shape_1_3_">
		<g>
			<path class="st4" d="M417.4,355.1c-0.7,0-1.2,0.6-1.2,1.2c0,0.7,0.6,1.2,1.2,1.2c0.7,0,1.2-0.6,1.2-1.2
				C418.7,355.6,418.1,355.1,417.4,355.1z M415.7,352.6c0.1-0.1,0.2-0.1,0.4-0.2v-4.2c-1.2,0.2-2.4,0.7-3.4,1.4L415.7,352.6z
				 M417.4,358.6c-0.3,0-0.5,0.2-0.5,0.5s0.2,0.5,0.5,0.5s0.5-0.2,0.5-0.5C417.9,358.8,417.7,358.6,417.4,358.6z M418.8,360.2v4.2
				c1.2-0.2,2.4-0.7,3.4-1.4l-3-3C419.1,360.1,418.9,360.1,418.8,360.2z M421.3,357.7c0,0.1-0.1,0.3-0.2,0.4l3,3
				c0.7-1,1.2-2.1,1.4-3.4H421.3L421.3,357.7z M417.4,342.9c-7.4,0-13.5,6-13.5,13.5c0,7.4,6,13.5,13.5,13.5c7.4,0,13.5-6,13.5-13.5
				S424.9,342.9,417.4,342.9z M417.4,365.9c-5.3,0-9.6-4.3-9.6-9.6s4.3-9.6,9.6-9.6c5.3,0,9.6,4.3,9.6,9.6S422.7,365.9,417.4,365.9z
				 M419.7,356.3c0,0.3,0.2,0.5,0.5,0.5s0.5-0.2,0.5-0.5s-0.2-0.5-0.5-0.5S419.7,356,419.7,356.3z M417.4,354.1
				c0.3,0,0.5-0.2,0.5-0.5s-0.2-0.5-0.5-0.5s-0.5,0.2-0.5,0.5C416.9,353.8,417.1,354.1,417.4,354.1z M422.2,349.6
				c-1-0.7-2.1-1.2-3.4-1.4v4.2c0.1,0,0.3,0.1,0.4,0.2L422.2,349.6z M413.7,354.6l-3-3c-0.7,1-1.2,2.1-1.4,3.4h4.2
				C413.6,354.8,413.7,354.7,413.7,354.6z M413.6,357.7h-4.2c0.2,1.2,0.7,2.4,1.4,3.4l3-3C413.7,358,413.6,357.8,413.6,357.7z
				 M412.7,363c1,0.7,2.1,1.2,3.4,1.4v-4.2c-0.1,0-0.3-0.1-0.4-0.2L412.7,363z M415.2,356.3c0-0.3-0.2-0.5-0.5-0.5s-0.5,0.2-0.5,0.5
				s0.2,0.5,0.5,0.5S415.2,356.6,415.2,356.3z M421.3,354.9h4.2c-0.2-1.2-0.7-2.4-1.4-3.4l-3,3C421.2,354.7,421.2,354.8,421.3,354.9
				z M517.8,354.4c-0.7,0-1.2,0.6-1.2,1.2c0,0.7,0.6,1.2,1.2,1.2c0.7,0,1.2-0.6,1.2-1.2C519.1,354.9,518.5,354.4,517.8,354.4z
				 M519.2,359.5v4.2c1.2-0.2,2.4-0.7,3.4-1.4l-3-3C519.5,359.4,519.3,359.5,519.2,359.5z M517.8,357.9c-0.3,0-0.5,0.2-0.5,0.5
				s0.2,0.5,0.5,0.5s0.5-0.2,0.5-0.5C518.4,358.1,518.1,357.9,517.8,357.9z M542.8,350c0.7-4.1,0-4.4-2.7-10.4
				c-0.7-1.6-2.7-2.6-4.2-3.5c-8.2-4.5-28.6-7.2-29.9-7.2c-4.2-4.1-10.9-11.9-20.1-18.1c-1.7-1.2-7.7-1.3-7.7-1.3s-49.2-1.9-61,0.9
				c-1,0.2-1.7,0.2-2.6,0.6c-0.1,0.1-2.6,2.6-2.7,2.9s-0.9,1.1-1.2,1.5c-1.8,2.4-4,4.9-5.6,7.5c-0.7,1.2-1,2.3-1.7,3.5
				c-0.6,1.1-3,2-3.3,4.1c-0.2,1-1.3,0.6-1.4,2.1c0.5,0.2,0.6,0.3,1.2,0.5c-0.9,3.3-1.5,9.2-1.5,9.8l0,0c0,0.1,0,0.1,0,0
				c-2.8,0.9-2.6,6-2.8,5.1c0.3,1.4,1.3,3.1,1.6,4.6c0.3,1.3-0.7,1.8-0.8,3c0.2,0.1,0.4,1.5,0.6,1.7c0.7,2,6.3,3.8,6.3,3.8h0.6
				c-0.5-1.4-0.7-2.9-0.7-4.5c0-7.8,6.3-14.1,14.1-14.1c7.8,0,14.1,6.3,14.1,14.1c0,1.6-0.3,3.1-0.7,4.6l73.9,0.1
				c-0.7-1.6-1-3.4-1-5.3c0-7.8,6.3-14.1,14.1-14.1c7.8,0,14.1,6.3,14.1,14.1c0,1.9-0.4,3.7-1.1,5.4h1.2c0,0,8.7,0.8,9.8-2
				c0.5-0.5,0.6-3.1,0.6-4.7s0.3-1.3,0.8-2.3C543.7,351.1,542.6,350.4,542.8,350z M444.1,326.4c-0.3,0.2-0.3,0.3-0.6,0.5
				c-1.1,0.8-11.8-0.3-26.4-0.3c0.2,0.4-1.7,0-0.2-3.3c2.1-4.6,5.3-7.8,5.2-7.9c4.3-0.6,15.8-0.5,22-0.3
				C444,318.7,444,320.7,444.1,326.4z M487.7,329.9c-0.2-0.3-0.9-0.7-1.1-1.1c-0.1-0.4,0.2-1.1,0-1.7c-0.6-1.5-2.8-2.4-5-2.4
				c-0.5,0.6-1.3,0.9-1.7,1.7c-0.1,0.2-0.5,2.3-0.5,2.4c0.1,0.3,0.3,0.4,0.3,0.6c0.4,0,0.2,0.1,0,0.2c0-0.1,0-0.1,0-0.2
				c-1.1,0-6.7,0.1-29.3-1c-0.6-11.9-1.2-12.3,0.2-14.2c13.2,0,27.2-0.2,27.2-0.2s9.9,12.1,13,16
				C490.3,330.3,488.6,329.9,487.7,329.9z M497.2,328.7c-4.9-3.9-11.4-12.4-14.5-14.9c-1.1,0,2.5-0.1,4.4-0.5
				c5.7,5,11.6,9.5,16.7,15.4C501.4,328.9,499.3,330.4,497.2,328.7z M517.8,342.2c-7.4,0-13.5,6-13.5,13.5c0,7.4,6,13.5,13.5,13.5
				c7.4,0,13.5-6,13.5-13.5S525.3,342.2,517.8,342.2z M517.8,365.2c-5.3,0-9.6-4.3-9.6-9.6s4.3-9.6,9.6-9.6s9.6,4.3,9.6,9.6
				S523.1,365.2,517.8,365.2z M521.6,357.4l3,3c0.7-1,1.2-2.1,1.4-3.4h-4.2C521.7,357.1,521.6,357.3,521.6,357.4z M521.7,354.2h4.2
				c-0.2-1.2-0.7-2.4-1.4-3.4l-3,3C521.6,354,521.7,354.1,521.7,354.2z M516.1,351.9c0.1-0.1,0.2-0.1,0.4-0.2v-4.2
				c-1.2,0.2-2.4,0.7-3.4,1.4L516.1,351.9z M515.6,355.6c0-0.3-0.2-0.5-0.5-0.5s-0.5,0.2-0.5,0.5s0.2,0.5,0.5,0.5
				C515.3,356.2,515.6,355.9,515.6,355.6z M517.8,353.4c0.3,0,0.5-0.2,0.5-0.5s-0.2-0.5-0.5-0.5s-0.5,0.2-0.5,0.5
				C517.3,353.1,517.5,353.4,517.8,353.4z M522.6,348.9c-1-0.7-2.1-1.2-3.4-1.4v4.2c0.1,0,0.3,0.1,0.4,0.2L522.6,348.9z
				 M520.1,355.6c0,0.3,0.2,0.5,0.5,0.5s0.5-0.2,0.5-0.5s-0.2-0.5-0.5-0.5S520.1,355.3,520.1,355.6z M514.1,353.9l-3-3
				c-0.7,1-1.2,2.1-1.4,3.4h4.2C514,354.1,514.1,354,514.1,353.9z M513.1,362.3c1,0.7,2.1,1.2,3.4,1.4v-4.2c-0.1,0-0.3-0.1-0.4-0.2
				L513.1,362.3z M514,357h-4.2c0.2,1.2,0.7,2.4,1.4,3.4l3-3C514.1,357.3,514,357.1,514,357z"/>
		</g>
	</g>
</g>
<g class="auto4">
	<g id="Shape_1_4_">
		<g>
			<path class="st4" d="M146.8,354.5c-0.7,0-1.3,0.6-1.3,1.3c0,0.7,0.6,1.3,1.3,1.3s1.3-0.6,1.3-1.3S147.5,354.5,146.8,354.5z
				 M146.8,358.2c-0.3,0-0.6,0.2-0.6,0.6c0,0.3,0.2,0.6,0.6,0.6s0.6-0.2,0.6-0.6C147.3,358.4,147.1,358.2,146.8,358.2z M148.2,359.9
				v4.5c1.3-0.2,2.5-0.7,3.6-1.5l-3.2-3.2C148.5,359.8,148.4,359.9,148.2,359.9z M150.7,357.7l3.2,3.2c0.7-1,1.3-2.3,1.5-3.6h-4.5
				C150.8,357.4,150.8,357.5,150.7,357.7z M150.7,353.9c0.1,0.1,0.1,0.3,0.2,0.4h4.5c-0.2-1.3-0.7-2.5-1.5-3.6L150.7,353.9z
				 M144.9,351.8c0.1-0.1,0.3-0.1,0.4-0.2v-4.5c-1.3,0.2-2.5,0.7-3.6,1.5L144.9,351.8z M146.8,341.5c-7.9,0-14.3,6.4-14.3,14.3
				s6.4,14.3,14.3,14.3c7.9,0,14.3-6.4,14.3-14.3S154.7,341.5,146.8,341.5z M146.8,366c-5.7,0-10.2-4.6-10.2-10.2
				c0-5.7,4.6-10.2,10.2-10.2c5.7,0,10.2,4.6,10.2,10.2S152.4,366,146.8,366z M146.8,353.4c0.3,0,0.6-0.2,0.6-0.6
				c0-0.3-0.2-0.6-0.6-0.6c-0.3,0-0.6,0.2-0.6,0.6C146.2,353.1,146.5,353.4,146.8,353.4z M151.8,348.6c-1-0.7-2.3-1.3-3.6-1.5v4.5
				c0.1,0,0.3,0.1,0.4,0.2L151.8,348.6z M142.8,353.9l-3.2-3.2c-0.7,1-1.3,2.3-1.5,3.6h4.5C142.7,354.2,142.7,354,142.8,353.9z
				 M141.7,362.9c1,0.7,2.3,1.3,3.6,1.5v-4.5c-0.1,0-0.3-0.1-0.4-0.2L141.7,362.9z M142.6,357.3h-4.5c0.2,1.3,0.7,2.5,1.5,3.6
				l3.2-3.2C142.7,357.5,142.7,357.4,142.6,357.3z M144.3,355.8c0-0.3-0.2-0.6-0.6-0.6c-0.3,0-0.6,0.2-0.6,0.6s0.2,0.6,0.6,0.6
				C144.1,356.3,144.3,356.1,144.3,355.8z M149.2,355.8c0,0.3,0.2,0.6,0.6,0.6s0.6-0.2,0.6-0.6s-0.2-0.6-0.6-0.6
				C149.4,355.2,149.2,355.5,149.2,355.8z M257.8,354.5c-0.7,0-1.3,0.6-1.3,1.3c0,0.7,0.6,1.3,1.3,1.3c0.7,0,1.3-0.6,1.3-1.3
				C259.1,355.1,258.6,354.5,257.8,354.5z M256,351.8c0.1-0.1,0.3-0.1,0.4-0.2v-4.5c-1.3,0.2-2.5,0.7-3.6,1.5L256,351.8z
				 M257.8,358.2c-0.3,0-0.6,0.2-0.6,0.6c0,0.3,0.2,0.6,0.6,0.6s0.6-0.2,0.6-0.6C258.4,358.4,258.1,358.2,257.8,358.2z M259.3,359.9
				v4.5c1.3-0.2,2.5-0.7,3.6-1.5l-3.2-3.2C259.6,359.8,259.4,359.9,259.3,359.9z M261.9,357.3c0,0.1-0.1,0.3-0.2,0.4l3.2,3.2
				c0.7-1,1.3-2.3,1.5-3.6H261.9L261.9,357.3z M282.8,339.1c-1.9-3-6.9-4-10.7-5.3c-26.5-6.4-35.3-4.3-39.7-4.9
				c-0.9-0.2-1.7-1-2.4-1.5c-1.6-1-3.3-1.9-4.8-2.8c-2.6-1.6-14.6-8.2-17.9-9.4c-7.1-2.6-18.4-4.7-45.6-2.5
				c-1.1-0.3-1.8-1.2-2.9-1.5c-1.2-0.3-2.2,0.3-3,0.5c0,0.9-0.1,1.6-0.2,2.3c-5.3,2.2-10.7,4-16,6.2c-2.2,0.9-4.5,1.8-6.7,2.8
				c-1.4,0.6-2.7,1.5-4.3,2c-1.7,0.6-3.6,0.3-5.5,0.7c-3.4,0.8-7.1,0.9-10.9,0.9c-0.4,0.7-1.2,1.5-1.4,2.4c0.7,0.2,0.9,0.7,0.8,1.6
				c-1.2,1.7-0.8,4.2-0.8,6.9c-2.5,1.3-2.8,5.9-2.2,9.6c-0.1,0.3-0.1,0.6-0.2,0.9c0.1,1,0.5,2.1,0.5,3.3c0.9,0.6,2,1.6,2.6,2.5
				c0.3,0.4,0.5,1.2,1.1,1.4c3.1,2.3,18.8,2.7,18.8,2.7h0.8c-0.1-0.8-0.2-1.6-0.2-2.4c0-8.2,6.7-14.9,14.9-14.9s14.9,6.7,14.9,14.9
				c0,1.4-0.2,3.6-0.5,4.9l82.6-0.1c-0.5-1.5-0.8-3.1-0.8-4.8c0-8.2,6.7-14.9,14.9-14.9s14.9,6.7,14.9,14.9c0,1.4-0.2,2.8-0.6,4.2
				h0.8c0,0,6.5-0.3,8.1-1.1c1.6-0.7,2.2-2.8,2.2-2.8l-0.4-4.4C282.9,351.6,284.8,342.3,282.8,339.1z M150.9,328.3
				c-4.9-3.3-2.3-7.1-2.5-7.1c-0.1,0.1-0.1,0.1-0.2,0.2c0.1-0.1,0.2-0.2,0.2-0.2c1.3-1.1,8.5-6.2,34.3-6.2c0.8,4.5,1.6,10.5,2.4,15
				C174.8,329.6,154.4,329.8,150.9,328.3z M217.3,330c-2.3,0-24.8,0-24.8,0s-3.6-9.6-4.9-14.9c0.2,0,4.6,0.2,4.6,0.2s8.9,1,14.4,2.8
				c4.4,1.4,13,7.2,13.1,7.6C217.1,325.8,216.5,327.8,217.3,330z M257.8,341.5c-7.9,0-14.3,6.4-14.3,14.3s6.4,14.3,14.3,14.3
				c7.9,0,14.3-6.4,14.3-14.3S265.7,341.5,257.8,341.5z M257.8,366c-5.7,0-10.2-4.6-10.2-10.2c0-5.7,4.6-10.2,10.2-10.2
				c5.7,0,10.2,4.6,10.2,10.2C268.1,361.4,263.5,366,257.8,366z M253.9,353.9l-3.2-3.2c-0.7,1-1.3,2.3-1.5,3.6h4.5
				C253.8,354.2,253.8,354,253.9,353.9z M255.4,355.8c0-0.3-0.2-0.6-0.6-0.6c-0.3,0-0.6,0.2-0.6,0.6s0.2,0.6,0.6,0.6
				C255.2,356.3,255.4,356.1,255.4,355.8z M257.8,353.4c0.3,0,0.6-0.2,0.6-0.6c0-0.3-0.2-0.6-0.6-0.6s-0.6,0.2-0.6,0.6
				C257.3,353.1,257.5,353.4,257.8,353.4z M262.9,348.6c-1-0.7-2.3-1.3-3.6-1.5v4.5c0.1,0,0.3,0.1,0.4,0.2L262.9,348.6z
				 M260.2,355.8c0,0.3,0.2,0.6,0.6,0.6c0.3,0,0.6-0.2,0.6-0.6s-0.2-0.6-0.6-0.6C260.5,355.2,260.2,355.5,260.2,355.8z M252.8,362.9
				c1,0.7,2.3,1.3,3.6,1.5v-4.5c-0.1,0-0.3-0.1-0.4-0.2L252.8,362.9z M253.7,357.3h-4.5c0.2,1.3,0.7,2.5,1.5,3.6l3.2-3.2
				C253.8,357.5,253.8,357.4,253.7,357.3z M261.9,354.3h4.5c-0.2-1.3-0.7-2.5-1.5-3.6l-3.2,3.2C261.8,354,261.9,354.2,261.9,354.3z"
				/>
		</g>
	</g>
</g>
<g class="wolke1_x2C__auto1">
	<g id="bjOq27.tif_27_">
		<g>
			<path class="st5" d="M919.7,350.9c0,0.7,0,1.3,0,2c-0.4,0.9-1.2,1.9-1.1,2.8c0.2,3.2-1.3,4.2-3.6,3.7c-0.3,1.1-0.7,2.3-2,2.4
				c-1.5,0.1-2.3-0.9-2.8-1.8c-0.9,0.6-1.8,1.7-2.7,1.6s-1.6-1.3-2.6-2.2c-2.4,0.8-3.5,0-3.8-2.9c-2.3-0.9-2.6-3-0.9-5.7
				c-0.6-1.4-0.7-2.8,0.2-4.1c0.7-1,1.7-1.4,2.9-0.8c0-1.3,0.6-2.1,1.7-2.5c1.4-0.5,2.6-0.3,3.4,0.8c0.8-0.7,1.5-1.3,2.2-2
				c0.5,0,0.9,0,1.4,0c1.2,0.6,2,1.5,2,3c3.1-1.1,4.6,0.7,3.9,3.5C918.5,349.5,919.1,350.2,919.7,350.9z"/>
		</g>
	</g>
</g>
<g class="wolke2_x2C__auto1">
	<g id="bjOq27.tif_26_">
		<g>
			<path class="st6" d="M903.9,334.1c0,0.5,0,1,0,1.6c-0.3,0.7-0.9,1.5-0.9,2.2c0.2,2.5-1,3.3-2.8,2.9c-0.3,0.9-0.5,1.8-1.6,1.9
				s-1.8-0.7-2.2-1.4c-0.7,0.5-1.4,1.4-2.1,1.3c-0.7-0.1-1.3-1.1-2-1.7c-1.9,0.6-2.7,0-3-2.3c-1.8-0.7-2.1-2.3-0.7-4.4
				c-0.5-1.1-0.6-2.2,0.2-3.2c0.6-0.8,1.3-1.1,2.3-0.6c0-1,0.5-1.7,1.3-2c1.1-0.4,2-0.3,2.7,0.6c0.6-0.5,1.1-1,1.7-1.6
				c0.4,0,0.7,0,1.1,0c0.9,0.5,1.6,1.1,1.6,2.3c2.5-0.9,3.6,0.6,3,2.7C902.9,333.1,903.4,333.6,903.9,334.1z"/>
		</g>
	</g>
</g>
<g class="wolke3_x2C__auto1">
	<g id="bjOq27.tif_23_">
		<g>
			<path class="st7" d="M876.9,337c0,0.4,0,0.8,0,1.2c-0.2,0.6-0.7,1.2-0.7,1.7c0.1,2-0.8,2.6-2.2,2.3c-0.2,0.7-0.4,1.4-1.2,1.5
				c-0.9,0.1-1.4-0.5-1.7-1.1c-0.5,0.4-1.1,1.1-1.6,1c-0.5,0-1-0.8-1.6-1.4c-1.5,0.5-2.1,0-2.3-1.8c-1.4-0.5-1.6-1.8-0.6-3.5
				c-0.4-0.9-0.4-1.7,0.1-2.5c0.4-0.6,1-0.8,1.8-0.5c0-0.8,0.4-1.3,1-1.5c0.8-0.3,1.6-0.2,2.1,0.5c0.5-0.4,0.9-0.8,1.3-1.2
				c0.3,0,0.6,0,0.9,0c0.7,0.4,1.3,0.9,1.2,1.8c1.9-0.7,2.8,0.5,2.4,2.1C876.1,336.1,876.5,336.6,876.9,337z"/>
		</g>
	</g>
</g>
<g class="wolke1_x2C__auto2">
	<g id="bjOq27.tif_24_">
		<g>
			<path class="st5" d="M643.2,336.2c0,0.8,0,1.5,0,2.3c-0.5,1.1-1.3,2.2-1.3,3.2c0.2,3.7-1.5,4.8-4.2,4.3c-0.4,1.3-0.8,2.7-2.3,2.8
				c-1.7,0.1-2.7-1-3.2-2.1c-1,0.7-2.1,2-3.1,1.9s-1.9-1.5-2.9-2.5c-2.8,0.9-4,0.1-4.4-3.3c-2.7-1-3-3.4-1-6.5
				c-0.7-1.6-0.8-3.2,0.2-4.7c0.8-1.2,1.9-1.6,3.3-0.9c0-1.5,0.7-2.4,1.9-2.9c1.6-0.6,3-0.4,3.9,0.9c0.9-0.8,1.7-1.5,2.5-2.3
				c0.5,0,1.1,0,1.6,0c1.4,0.7,2.3,1.7,2.3,3.4c3.6-1.3,5.3,0.9,4.5,4C641.8,334.7,642.5,335.4,643.2,336.2z"/>
		</g>
	</g>
</g>
<g class="wolke2_x2C__auto2">
	<g id="bjOq27.tif_19_">
		<g>
			<path class="st6" d="M622.4,322.6c0,0.8,0,1.7,0,2.5c-0.5,1.2-1.5,2.4-1.4,3.5c0.2,4.1-1.7,5.2-4.5,4.7c-0.4,1.4-0.8,2.9-2.5,3
				c-1.8,0.1-2.9-1.1-3.5-2.3c-1.1,0.7-2.3,2.2-3.4,2.1c-1.1-0.1-2-1.7-3.2-2.8c-3,1-4.4,0.1-4.8-3.6c-2.9-1.1-3.3-3.7-1.1-7.1
				c-0.8-1.8-0.9-3.5,0.3-5.1c0.9-1.3,2.1-1.7,3.6-1c0-1.7,0.8-2.6,2.1-3.1c1.7-0.6,3.3-0.4,4.3,1c0.9-0.9,1.8-1.7,2.7-2.5
				c0.6,0,1.2,0,1.8,0c1.5,0.7,2.6,1.8,2.5,3.8c3.9-1.4,5.7,0.9,4.8,4.4C620.9,320.9,621.6,321.8,622.4,322.6z"/>
		</g>
	</g>
</g>
<g class="wolke3_x2C__auto2">
	<g id="bjOq27.tif_22_">
		<g>
			<path class="st6" d="M604.1,345.5c0,0.5,0,0.9,0,1.4c-0.3,0.6-0.8,1.3-0.8,1.9c0.1,2.2-0.9,2.9-2.5,2.6c-0.2,0.8-0.5,1.6-1.4,1.6
				c-1,0.1-1.6-0.6-1.9-1.3c-0.6,0.4-1.3,1.2-1.8,1.1c-0.6-0.1-1.1-0.9-1.8-1.5c-1.7,0.5-2.4,0-2.6-2c-1.6-0.6-1.8-2-0.6-3.9
				c-0.4-1-0.5-1.9,0.1-2.8c0.5-0.7,1.2-0.9,2-0.6c0-0.9,0.4-1.4,1.2-1.7c0.9-0.3,1.8-0.2,2.3,0.5c0.5-0.5,1-0.9,1.5-1.4
				c0.3,0,0.6,0,1,0c0.8,0.4,1.4,1,1.4,2.1c2.2-0.8,3.1,0.5,2.7,2.4C603.3,344.6,603.7,345,604.1,345.5z"/>
		</g>
	</g>
</g>
<g class="wolke4_x2C__auto2">
	<g id="bjOq27.tif_15_">
		<g>
			<path class="st7" d="M582.1,338c0,0.3,0,0.6,0,0.8c-0.2,0.4-0.5,0.8-0.5,1.2c0.1,1.4-0.6,1.8-1.5,1.6c-0.1,0.5-0.3,1-0.8,1
				c-0.6,0-1-0.4-1.2-0.8c-0.4,0.3-0.8,0.7-1.1,0.7c-0.4,0-0.7-0.6-1.1-0.9c-1,0.3-1.5,0-1.6-1.2c-1-0.4-1.1-1.2-0.4-2.4
				c-0.3-0.6-0.3-1.2,0.1-1.7c0.3-0.4,0.7-0.6,1.2-0.3c0-0.6,0.3-0.9,0.7-1c0.6-0.2,1.1-0.1,1.4,0.3c0.3-0.3,0.6-0.6,0.9-0.8
				c0.2,0,0.4,0,0.6,0c0.5,0.2,0.9,0.6,0.8,1.3c1.3-0.5,1.9,0.3,1.6,1.5C581.6,337.4,581.9,337.7,582.1,338z"/>
		</g>
	</g>
</g>
<g class="wolke1_x2C__auto3">
	<g id="bjOq27.tif_20_">
		<g>
			<path class="st5" d="M392.7,351.7c0,0.8,0,1.5,0,2.3c-0.5,1.1-1.3,2.2-1.3,3.2c0.2,3.7-1.5,4.8-4.2,4.3c-0.4,1.3-0.8,2.7-2.3,2.8
				c-1.7,0.1-2.7-1-3.2-2.1c-1,0.7-2.1,2-3.1,1.9s-1.9-1.5-2.9-2.5c-2.8,0.9-4,0.1-4.4-3.3c-2.7-1-3-3.4-1-6.5
				c-0.7-1.6-0.8-3.2,0.2-4.7c0.8-1.2,1.9-1.6,3.3-0.9c0-1.5,0.7-2.4,1.9-2.9c1.6-0.6,3-0.4,3.9,0.9c0.9-0.8,1.7-1.5,2.5-2.3
				c0.5,0,1.1,0,1.6,0c1.4,0.7,2.3,1.7,2.3,3.4c3.6-1.3,5.3,0.9,4.5,4C391.3,350.2,392,350.9,392.7,351.7z"/>
		</g>
	</g>
</g>
<g class="wolke2_x2C__auto3">
	<g id="bjOq27.tif_11_">
		<g>
			<path class="st6" d="M375.7,332.7c0,0.5,0,1,0,1.5c-0.3,0.7-0.9,1.4-0.8,2.1c0.1,2.4-1,3.1-2.7,2.8c-0.2,0.8-0.5,1.7-1.5,1.8
				c-1.1,0.1-1.7-0.7-2.1-1.4c-0.7,0.4-1.4,1.3-2,1.2c-0.6-0.1-1.2-1-1.9-1.6c-1.8,0.6-2.6,0-2.8-2.1c-1.7-0.6-2-2.2-0.7-4.2
				c-0.5-1-0.5-2.1,0.2-3c0.5-0.8,1.3-1,2.1-0.6c0-1,0.5-1.6,1.3-1.8c1-0.4,1.9-0.2,2.5,0.6c0.6-0.5,1.1-1,1.6-1.5c0.3,0,0.7,0,1,0
				c0.9,0.4,1.5,1.1,1.5,2.2c2.3-0.8,3.4,0.5,2.9,2.6C374.8,331.7,375.3,332.2,375.7,332.7z"/>
		</g>
	</g>
</g>
<g class="wolke3_x2C__auto3">
	<g id="bjOq27.tif_18_">
		<g>
			<path class="st7" d="M353.7,339.3c0,0.4,0,0.8,0,1.3c-0.3,0.6-0.7,1.2-0.7,1.8c0.1,2.1-0.9,2.7-2.3,2.4c-0.2,0.7-0.4,1.5-1.3,1.5
				c-0.9,0.1-1.5-0.6-1.8-1.2c-0.6,0.4-1.2,1.1-1.7,1.1c-0.6-0.1-1-0.9-1.6-1.4c-1.5,0.5-2.2,0-2.4-1.8c-1.5-0.6-1.7-1.9-0.6-3.6
				c-0.4-0.9-0.5-1.8,0.1-2.6c0.5-0.6,1.1-0.9,1.8-0.5c0-0.8,0.4-1.4,1.1-1.6c0.9-0.3,1.7-0.2,2.2,0.5c0.5-0.4,0.9-0.9,1.4-1.3
				c0.3,0,0.6,0,0.9,0c0.8,0.4,1.3,0.9,1.3,1.9c2-0.7,2.9,0.5,2.5,2.2C352.9,338.4,353.3,338.9,353.7,339.3z"/>
		</g>
	</g>
</g>
<g class="wolke1_x2C__auto4">
	<g id="bjOq27.tif_7_">
		<g>
			<path class="st5" d="M103.7,343.7c0,0.8,0,1.5,0,2.3c-0.5,1.1-1.3,2.2-1.3,3.2c0.2,3.7-1.5,4.8-4.2,4.3c-0.4,1.3-0.8,2.7-2.3,2.8
				c-1.7,0.1-2.7-1-3.2-2.1c-1,0.7-2.1,2-3.1,1.9s-1.9-1.5-2.9-2.5c-2.8,0.9-4,0.1-4.4-3.3c-2.7-1-3-3.4-1-6.5
				c-0.7-1.6-0.8-3.2,0.2-4.7c0.8-1.2,1.9-1.6,3.3-0.9c0-1.5,0.7-2.4,1.9-2.9c1.6-0.6,3-0.4,3.9,0.9c0.9-0.8,1.7-1.5,2.5-2.3
				c0.5,0,1.1,0,1.6,0c1.4,0.7,2.3,1.7,2.3,3.4c3.6-1.3,5.3,0.9,4.5,4C102.3,342.2,103,342.9,103.7,343.7z"/>
		</g>
	</g>
</g>
<g class="wolke2_x2C__auto4">
	<g id="bjOq27.tif_16_">
		<g>
			<path class="st6" d="M81.7,331.7c0,0.8,0,1.5,0,2.3c-0.5,1.1-1.3,2.2-1.3,3.2c0.2,3.7-1.5,4.8-4.2,4.3c-0.4,1.3-0.8,2.7-2.3,2.8
				c-1.7,0.1-2.7-1-3.2-2.1c-1,0.7-2.1,2-3.1,1.9s-1.9-1.5-2.9-2.5c-2.8,0.9-4,0.1-4.4-3.3c-2.7-1-3-3.4-1-6.5
				c-0.7-1.6-0.8-3.2,0.2-4.7c0.8-1.2,1.9-1.6,3.3-0.9c0-1.5,0.7-2.4,1.9-2.9c1.6-0.6,3-0.4,3.9,0.9c0.9-0.8,1.7-1.5,2.5-2.3
				c0.5,0,1.1,0,1.6,0c1.4,0.7,2.3,1.7,2.3,3.4c3.6-1.3,5.3,0.9,4.5,4C80.3,330.2,81,330.9,81.7,331.7z"/>
		</g>
	</g>
</g>
<g class="wolke3_x2C__auto4">
	<g id="bjOq27.tif_3_">
		<g>
			<path class="st6" d="M64.2,352.2c0,0.5,0,1,0,1.5c-0.3,0.7-0.9,1.4-0.8,2.1c0.1,2.4-1,3.1-2.7,2.8c-0.2,0.8-0.5,1.7-1.5,1.8
				c-1.1,0.1-1.7-0.7-2.1-1.4c-0.7,0.4-1.4,1.3-2,1.2c-0.6-0.1-1.2-1-1.9-1.6c-1.8,0.6-2.6,0-2.8-2.1c-1.7-0.6-2-2.2-0.7-4.2
				c-0.5-1-0.5-2.1,0.2-3c0.5-0.8,1.3-1,2.1-0.6c0-1,0.5-1.6,1.3-1.8c1-0.4,1.9-0.2,2.5,0.6c0.6-0.5,1.1-1,1.6-1.5c0.3,0,0.7,0,1,0
				c0.9,0.4,1.5,1.1,1.5,2.2c2.3-0.8,3.4,0.5,2.9,2.6C63.3,351.2,63.8,351.7,64.2,352.2z"/>
		</g>
	</g>
</g>
<g class="wolke4_x2C__auto4">
	<g id="bjOq27.tif_14_">
		<g>
			<path class="st7" d="M44.1,347c0,0.3,0,0.6,0,0.8c-0.2,0.4-0.5,0.8-0.5,1.2c0.1,1.4-0.6,1.8-1.5,1.6c-0.1,0.5-0.3,1-0.8,1
				c-0.6,0-1-0.4-1.2-0.8c-0.4,0.3-0.8,0.7-1.1,0.7c-0.4,0-0.7-0.6-1.1-0.9c-1,0.3-1.5,0-1.6-1.2c-1-0.4-1.1-1.2-0.4-2.4
				c-0.3-0.6-0.3-1.2,0.1-1.7c0.3-0.4,0.7-0.6,1.2-0.3c0-0.6,0.3-0.9,0.7-1c0.6-0.2,1.1-0.1,1.4,0.3c0.3-0.3,0.6-0.6,0.9-0.8
				c0.2,0,0.4,0,0.6,0c0.5,0.2,0.9,0.6,0.8,1.3c1.3-0.5,1.9,0.3,1.6,1.5C43.6,346.4,43.9,346.7,44.1,347z"/>
		</g>
	</g>
</g>
</svg>
